<svg xmlns="http://www.w3.org/2000/svg" width="24" height="24" viewBox="0 0 24 24" fill="none" stroke="#3b82f6" stroke-width="2" stroke-linecap="round" stroke-linejoin="round">
  <path d="M4 10V4a2 2 0 0 1 2-2h8.5L20 7.5V20a2 2 0 0 1-2 2H4"></path>
  <polyline points="14 2 14 8 20 8"></polyline>
  <path d="M10.7 13.5C10.7 13.5 15.2 10.5 16 12.5C16.8 14.5 12.5 17.5 12.5 17.5"></path>
  <path d="M2 17.3C2 17.3 6.3 19.9 8.3 17.8C10.4 15.7 7.2 13.2 7.2 13.2"></path>
  <path d="M4.6 13.2C4.6 13.2 2 14.5 2 16.5C2 18.5 4 19.5 4 19.5"></path>
  <path d="M10.7 19.2C10.7 19.2 13.5 17.5 13.5 15.5C13.5 13.5 11.2 12.8 11.2 12.8"></path>
</svg>