<svg width="130" height="141" viewBox="0 0 130 141" fill="none" xmlns="http://www.w3.org/2000/svg">
<path d="M65.0369 28.1768L64.7996 27.9885C65.8765 26.6311 67.0093 25.3319 68.166 24.1269L68.3845 24.3368C67.2343 25.5346 66.108 26.8266 65.0369 28.1768Z" fill="#407BFF"/>
<path d="M63.7579 29.2997L62.6546 30.6907L62.892 30.879L63.9953 29.488L63.7579 29.2997Z" fill="#407BFF"/>
<path d="M87.5212 44.0629C94.9611 32.0996 95.9747 20.3157 90.5572 16.5008C85.1397 12.6858 74.3865 17.6113 65.6303 28.6476L40.5909 60.2086L66.2453 78.2739L87.5212 44.0629Z" fill="#407BFF"/>
<path opacity="0.1" d="M84.5904 42.0005L62.8122 75.856L60.1464 70.7645L81.7791 39.8808C87.8951 31.1459 91.3208 23.1633 91.3358 18.7187C91.3372 18.3177 91.9087 18.2184 92.0405 18.5971C93.5825 23.025 90.9123 32.1759 84.5904 42.0005Z" fill="white"/>
<path d="M66.2461 78.2798C69.7097 73.3618 66.7746 65.3305 59.6905 60.3415C52.6064 55.3524 44.0558 55.2949 40.5922 60.2129C37.1287 65.1309 40.0637 73.1622 47.1479 78.1513C54.232 83.1403 62.7826 83.1979 66.2461 78.2798Z" fill="#407BFF"/>
<path opacity="0.5" d="M66.2461 78.2798C69.7097 73.3618 66.7746 65.3305 59.6905 60.3415C52.6064 55.3524 44.0558 55.2949 40.5922 60.2129C37.1287 65.1309 40.0637 73.1622 47.1479 78.1513C54.232 83.1403 62.7826 83.1979 66.2461 78.2798Z" fill="white"/>
<path opacity="0.1" d="M63.583 54.751C57.9522 50.7857 51.5674 49.6543 47.4932 51.5075L41.1398 59.5134C44.8986 55.3071 52.9569 55.5947 59.689 60.3352C66.4238 65.0778 69.4097 72.5677 66.7121 77.525L72.0454 68.9517C72.4998 64.4683 69.2731 58.758 63.583 54.751Z" fill="black"/>
<path opacity="0.2" d="M72.5977 28.9417C71.0362 31.4126 69.8679 36.0395 74.5006 39.3018C79.1332 42.564 83.0958 39.9051 84.8959 37.6023L72.5977 28.9417Z" fill="black"/>
<path d="M85.9916 34.7342C85.4591 39.1507 80.3563 42.373 74.996 38.5984C69.6357 34.8239 70.9499 28.9335 74.9285 26.9437C77.38 25.7178 80.5015 26.242 82.6379 27.7463C84.7739 29.2509 86.3196 32.0129 85.9916 34.7342Z" fill="white"/>
<path d="M75.724 37.5643C73.638 36.0953 72.5724 34.1805 72.723 32.1722C72.8535 30.4347 73.9153 28.8647 75.4943 28.075C77.3581 27.143 79.9958 27.4333 81.9096 28.7808C83.8231 30.1282 84.9856 32.5142 84.736 34.5828C84.5247 36.3354 83.4043 37.8643 81.8124 38.5728C79.9722 39.3915 77.8101 39.0333 75.724 37.5643Z" fill="#407BFF"/>
<path opacity="0.3" d="M75.724 37.5643C73.638 36.0953 72.5724 34.1805 72.723 32.1722C72.8535 30.4347 73.9153 28.8647 75.4943 28.075C77.3581 27.143 79.9958 27.4333 81.9096 28.7808C83.8231 30.1282 84.9856 32.5142 84.736 34.5828C84.5247 36.3354 83.4043 37.8643 81.8124 38.5728C79.9722 39.3915 77.8101 39.0333 75.724 37.5643Z" fill="black"/>
<path d="M75.724 37.5643C73.6379 36.0953 72.5346 34.2339 72.6168 32.3228C72.6881 30.6693 73.6749 29.2057 75.1926 28.5034C76.9838 27.6744 79.5708 28.0367 81.4846 29.3841C83.3981 30.7316 84.6113 33.0457 84.4342 35.0112C84.2843 36.6764 83.2392 38.0988 81.7062 38.7234C79.9344 39.4449 77.81 39.0333 75.724 37.5643Z" fill="#407BFF"/>
<path opacity="0.2" d="M75.724 37.5643C73.6379 36.0953 72.5346 34.2339 72.6168 32.3228C72.6881 30.6693 73.6749 29.2057 75.1926 28.5034C76.9838 27.6744 79.5708 28.0367 81.4846 29.3841C83.3981 30.7316 84.6113 33.0457 84.4342 35.0112C84.2843 36.6764 83.2392 38.0988 81.7062 38.7234C79.9344 39.4449 77.81 39.0333 75.724 37.5643Z" fill="white"/>
<path opacity="0.3" d="M82.9317 30.7394L73.2942 34.9903C72.809 34.1418 72.5775 33.2402 72.6158 32.3235C72.6354 31.8729 72.721 31.4383 72.8727 31.0308L79.0932 28.2877C79.9359 28.502 80.7584 28.8722 81.4846 29.3841C82.0301 29.768 82.5188 30.2279 82.9317 30.7394Z" fill="white"/>
<path opacity="0.3" d="M84.3155 33.4812L75.472 37.3787C74.9091 36.9589 74.4273 36.5117 74.027 36.0364L83.6494 31.7907C83.9559 32.3386 84.1826 32.9118 84.3155 33.4812Z" fill="white"/>
<path opacity="0.1" d="M93.9592 25.8548C93.6654 23.4934 91.8495 20.7609 88.98 18.7402C86.1129 16.7213 82.9283 15.9327 80.6036 16.4498C84.5582 14.8373 88.103 14.7736 90.5568 16.5011C93.01 18.229 94.1444 21.5882 93.9592 25.8548Z" fill="black"/>
<path opacity="0.5" d="M59.6861 68.6448C60.7651 67.1126 59.8911 64.639 57.734 63.1199C55.5769 61.6007 52.9535 61.6112 51.8745 63.1434C50.7954 64.6755 51.6694 67.1491 53.8265 68.6683C55.9836 70.1874 58.6071 70.1769 59.6861 68.6448Z" fill="#407BFF"/>
<path opacity="0.5" d="M49.4947 67.196C48.4157 68.728 45.7924 68.7386 43.6351 67.2196C41.4778 65.7006 40.6036 63.227 41.6826 61.6949C42.7616 60.1629 45.3849 60.1523 47.5422 61.6713C49.6995 63.1907 50.5737 65.664 49.4947 67.196Z" fill="#407BFF"/>
<path opacity="0.5" d="M64.4775 77.7468C63.3985 79.2788 60.7752 79.2894 58.6179 77.7704C56.4606 76.2514 55.5864 73.7778 56.6654 72.2457C57.7444 70.7137 60.3677 70.7031 62.525 72.2221C64.6822 73.7411 65.5561 76.2144 64.4775 77.7468Z" fill="#407BFF"/>
<path opacity="0.5" d="M54.2876 76.3035C53.2086 77.8355 50.5853 77.8461 48.428 76.3271C46.2707 74.8081 45.3965 72.3344 46.4755 70.8024C47.5545 69.2704 50.1778 69.2598 52.3351 70.7788C54.4924 72.2978 55.3666 74.7711 54.2876 76.3035Z" fill="#407BFF"/>
<path opacity="0.5" d="M59.6852 68.6386C59.5712 68.8006 59.4356 68.9482 59.2901 69.0762C59.8879 67.5477 58.9829 65.4304 57.0568 64.0741C55.1303 62.7174 52.8319 62.5791 51.5944 63.657C51.666 63.4769 51.7588 63.2995 51.8732 63.1376C52.9508 61.6073 55.5761 61.5956 57.7327 63.1139C59.889 64.6326 60.7628 67.108 59.6852 68.6386Z" fill="#407BFF"/>
<path opacity="0.5" d="M49.4933 67.1964C49.3789 67.3587 49.2457 67.5032 49.0982 67.634C49.6981 66.103 48.7958 63.9875 46.8666 62.6291C44.9401 61.2724 42.6417 61.1341 41.4022 62.2148C41.4754 62.0319 41.5669 61.8576 41.6809 61.6953C42.7606 60.1623 45.3839 60.1534 47.5405 61.672C49.6998 63.1924 50.5726 65.6633 49.4933 67.1964Z" fill="#407BFF"/>
<path opacity="0.5" d="M64.4778 77.7481C64.3634 77.9104 64.2299 78.0549 64.0827 78.1858C64.6826 76.6548 63.7779 74.5376 61.8511 73.1809C59.9218 71.8225 57.6262 71.6859 56.3867 72.7665C56.4603 72.5837 56.5514 72.4094 56.6657 72.2471C57.7454 70.7141 60.366 70.7031 62.525 72.2238C64.6816 73.7421 65.5571 76.2151 64.4778 77.7481Z" fill="#407BFF"/>
<path opacity="0.5" d="M54.2876 76.3035C54.1732 76.4658 54.0424 76.6123 53.8924 76.7411C54.4903 75.2128 53.5873 73.0925 51.6608 71.7362C49.7343 70.3795 47.4339 70.2439 46.1964 71.3219C46.267 71.1373 46.3608 70.9647 46.4751 70.8024C47.5548 69.2694 50.1781 69.2605 52.3347 70.7791C54.4913 72.2974 55.3669 74.7704 54.2876 76.3035Z" fill="#407BFF"/>
<path d="M57.582 40.3C57.582 40.3 52.962 46.2979 48.9354 51.4627C47.7825 52.9416 45.9306 53.647 44.0695 53.4166C40.5511 52.981 34.8097 55.4769 34.8097 55.4769C34.8097 55.4769 45.6615 37.6691 57.582 40.3Z" fill="#407BFF"/>
<path opacity="0.3" d="M57.582 40.3C57.582 40.3 52.962 46.2979 48.9354 51.4627C47.7825 52.9416 45.9306 53.647 44.0695 53.4166C40.5511 52.981 34.8097 55.4769 34.8097 55.4769C34.8097 55.4769 45.6615 37.6691 57.582 40.3Z" fill="black"/>
<path d="M79.2626 55.5673C79.2626 55.5673 75.1727 61.9381 71.667 67.47C70.6633 69.054 70.6229 71.035 71.467 72.7098C73.0627 75.8758 72.6477 82.1223 72.6477 82.1223C72.6477 82.1223 85.7571 65.9037 79.2626 55.5673Z" fill="#407BFF"/>
<path opacity="0.3" d="M79.2626 55.5673C79.2626 55.5673 75.1727 61.9381 71.667 67.47C70.6633 69.054 70.6229 71.035 71.467 72.7098C73.0627 75.8758 72.6477 82.1223 72.6477 82.1223C72.6477 82.1223 85.7571 65.9037 79.2626 55.5673Z" fill="black"/>
<path d="M94.1992 101.381C98.4607 90.9151 79.9923 87.9501 72.6662 90.5761C65.3403 93.2022 57.8868 95.1547 57.5933 88.1521C57.2999 81.1499 62.942 76.8069 60.2557 75.191C58.7644 74.2938 58.3384 75.8885 57.6053 78.1858C55.3487 85.2542 42.59 86.9403 48.4602 97.1747C54.3307 107.409 51.2133 105.187 41.3223 109.294C31.431 113.401 36.5174 125.223 46.0858 125.223C55.6542 125.223 85.8064 125.223 103.646 125.223C130.026 125.223 105.051 74.7291 94.1992 101.381Z" fill="#407BFF"/>
<path opacity="0.6" d="M94.1992 101.381C98.4607 90.9151 79.9923 87.9501 72.6662 90.5761C65.3403 93.2022 57.8868 95.1547 57.5933 88.1521C57.2999 81.1499 62.942 76.8069 60.2557 75.191C58.7644 74.2938 58.3384 75.8885 57.6053 78.1858C55.3487 85.2542 42.59 86.9403 48.4602 97.1747C54.3307 107.409 51.2133 105.187 41.3223 109.294C31.431 113.401 36.5174 125.223 46.0858 125.223C55.6542 125.223 85.8064 125.223 103.646 125.223C130.026 125.223 105.051 74.7291 94.1992 101.381Z" fill="white"/>
<path d="M45.5886 64.9063C44.8209 62.2415 40.671 65.5993 36.5807 69.6461C32.4573 73.7258 30.476 82.9675 26.523 87.782C22.5424 92.6297 11.243 96.987 15.6702 104.244C22.2013 114.95 7.19078 125.223 24.966 125.223C42.7413 125.223 54.7601 125.223 61.4257 125.223C68.0914 125.223 75.3217 117.071 64.9397 111.516C54.5581 105.961 39.0044 118.897 34.8094 106.567C32.7278 100.449 40.2762 103.257 36.7828 93.2358C33.2894 83.215 33.5154 80.489 35.2991 76.0228C39.6383 65.1604 46.7545 68.9524 45.5886 64.9063Z" fill="#407BFF"/>
<path opacity="0.6" d="M45.5886 64.9063C44.8209 62.2415 40.671 65.5993 36.5807 69.6461C32.4573 73.7258 30.476 82.9675 26.523 87.782C22.5424 92.6297 11.243 96.987 15.6702 104.244C22.2013 114.95 7.19078 125.223 24.966 125.223C42.7413 125.223 54.7601 125.223 61.4257 125.223C68.0914 125.223 75.3217 117.071 64.9397 111.516C54.5581 105.961 39.0044 118.897 34.8094 106.567C32.7278 100.449 40.2762 103.257 36.7828 93.2358C33.2894 83.215 33.5154 80.489 35.2991 76.0228C39.6383 65.1604 46.7545 68.9524 45.5886 64.9063Z" fill="white"/>
<path d="M53.1442 66.1352C54.0492 64.4834 57.1509 65.4754 57.0831 67.634C57.0153 69.793 48.9806 72.6269 50.4733 80.0866C51.9659 87.5464 66.3073 88.085 69.674 95.5588C73.0404 103.033 60.0023 104.082 63.8768 108.755C67.7513 113.43 79.7739 102.696 88.3249 105.456C96.8759 108.217 105.427 125.223 89.7388 125.223C74.0506 125.223 51.9132 125.223 41.4024 125.223C30.8917 125.223 23.2159 103.515 33.3157 94.5883C43.4152 85.6613 35.2682 88.5565 39.039 82.8332C42.8091 77.11 49.6768 72.4643 53.1442 66.1352Z" fill="#407BFF"/>
<path opacity="0.8" d="M53.1442 66.1352C54.0492 64.4834 57.1509 65.4754 57.0831 67.634C57.0153 69.793 48.9806 72.6269 50.4733 80.0866C51.9659 87.5464 66.3073 88.085 69.674 95.5588C73.0404 103.033 60.0023 104.082 63.8768 108.755C67.7513 113.43 79.7739 102.696 88.3249 105.456C96.8759 108.217 105.427 125.223 89.7388 125.223C74.0506 125.223 51.9132 125.223 41.4024 125.223C30.8917 125.223 23.2159 103.515 33.3157 94.5883C43.4152 85.6613 35.2682 88.5565 39.039 82.8332C42.8091 77.11 49.6768 72.4643 53.1442 66.1352Z" fill="white"/>
</svg>
