<svg width="130" height="130" viewBox="0 0 130 130" fill="none" xmlns="http://www.w3.org/2000/svg">
<path d="M84.3629 9.72135C84.4259 9.72138 84.4889 9.72141 84.5538 9.72144C85.504 9.72374 86.3935 9.77757 87.3034 10.0749C87.3784 10.0991 87.3784 10.0991 87.4549 10.1237C90.2528 11.0424 92.5956 12.8931 94.1962 15.3637C94.2651 15.4699 94.3355 15.5752 94.4086 15.6786C94.7076 16.1026 94.926 16.5635 95.1518 17.029C95.2218 17.1704 95.2983 17.308 95.374 17.4464C95.6419 17.9804 95.8001 18.5698 95.9806 19.1376C95.9944 19.1808 96.0083 19.2239 96.0226 19.2683C96.1578 19.6891 96.2794 20.1117 96.3815 20.5418C96.4116 20.6663 96.443 20.7904 96.4768 20.914C96.641 21.5473 96.6935 22.1861 96.7477 22.8365C96.7639 23.0302 96.7811 23.2238 96.7984 23.4173C96.8696 24.2292 96.9032 25.0127 96.8345 25.826C96.7919 26.4143 96.7751 27.0045 96.7519 27.5938C96.731 28.1174 96.7097 28.641 96.6876 29.1645C96.6851 29.2245 96.6826 29.2844 96.6801 29.3461C96.6536 29.9743 96.6196 30.5947 96.5269 31.2173C96.4732 31.6003 96.4217 31.98 96.3984 32.3662C96.3742 32.7409 96.3128 33.1047 96.2479 33.4739C96.1806 33.8608 96.1309 34.2479 96.0921 34.6387C96.0644 34.9011 96.0136 35.146 95.9465 35.4001C95.8976 35.6065 95.8783 35.8151 95.856 36.0259C95.8124 36.4103 95.7416 36.7752 95.6409 37.1495C95.5973 37.3182 95.5641 37.4851 95.5347 37.6569C95.4128 38.3587 95.248 39.0543 95.0709 39.7441C95.0255 39.9264 94.9822 40.1089 94.9399 40.2919C94.926 40.3514 94.9122 40.4108 94.8979 40.4721C94.8705 40.5902 94.8433 40.7084 94.8165 40.8266C94.7468 41.1256 94.6637 41.4072 94.5513 41.6926C94.4533 41.9606 94.3861 42.238 94.3134 42.5137C93.9471 43.8781 93.9471 43.8781 93.7173 44.4039C93.6252 44.6266 93.5525 44.8557 93.4779 45.0847C93.4611 45.1353 93.4444 45.186 93.4272 45.2381C93.3529 45.4633 93.2792 45.6888 93.2057 45.9142C93.1842 45.9798 93.1626 46.0455 93.1404 46.1131C93.1223 46.169 93.1041 46.2249 93.0854 46.2825C93.0257 46.4494 92.9582 46.6113 92.8874 46.7738C92.7712 47.0434 92.6611 47.3156 92.5499 47.5874C92.5242 47.65 92.4986 47.7127 92.4721 47.7772C92.3351 48.113 92.2006 48.4494 92.0718 48.7885C91.9187 49.1912 91.7501 49.5823 91.5564 49.967C91.433 50.2128 91.3154 50.461 91.1985 50.7099C90.8133 51.5293 90.4018 52.333 89.9615 53.1242C89.9188 53.201 89.9188 53.201 89.8752 53.2794C89.8537 53.3179 89.8323 53.3565 89.8102 53.3962C89.8781 53.3964 89.8781 53.3964 89.9474 53.3966C92.6343 53.4032 95.3212 53.4101 98.0081 53.4175C98.3311 53.4184 98.6541 53.4193 98.9771 53.4202C99.0414 53.4203 99.1057 53.4205 99.172 53.4207C100.212 53.4235 101.251 53.4261 102.291 53.4287C103.358 53.4313 104.426 53.4341 105.494 53.4372C106.152 53.439 106.81 53.4407 107.468 53.4422C107.92 53.4432 108.372 53.4445 108.824 53.4459C109.085 53.4467 109.345 53.4474 109.605 53.4479C112.343 53.4527 112.343 53.4527 113.226 53.6734C113.287 53.6879 113.347 53.7023 113.409 53.7173C114.189 53.9088 114.873 54.1829 115.584 54.5532C115.732 54.6271 115.879 54.7007 116.026 54.7741C116.136 54.829 116.246 54.8839 116.356 54.9388C116.356 54.9812 116.356 55.0237 116.356 55.0674C116.412 55.0824 116.467 55.0974 116.525 55.1128C116.77 55.2069 116.921 55.3257 117.119 55.4972C117.169 55.5405 117.169 55.5405 117.221 55.5847C117.318 55.6689 117.416 55.7538 117.513 55.8387C117.56 55.8789 117.608 55.9192 117.657 55.9607C118.092 56.3327 118.518 56.7291 118.862 57.1884C118.902 57.2372 118.941 57.286 118.981 57.3363C119.118 57.5082 119.25 57.6824 119.381 57.8593C119.424 57.9176 119.467 57.9758 119.511 58.0358C119.635 58.2193 119.731 58.4029 119.827 58.6025C119.879 58.7029 119.879 58.7029 119.933 58.8054C120.201 59.3249 120.416 59.845 120.598 60.4022C120.616 60.4583 120.635 60.5144 120.654 60.5722C120.685 60.6726 120.715 60.7734 120.743 60.8748C120.774 60.9848 120.806 61.0944 120.841 61.2034C121.028 61.8758 121.013 62.55 121.009 63.2433C121.008 63.4548 121.009 63.6663 121.01 63.8778C121.011 64.5678 120.998 65.2026 120.791 65.8656C120.765 65.9634 120.739 66.0612 120.713 66.1591C120.369 67.3613 119.836 68.5407 119.055 69.5292C119.013 69.5292 118.97 69.5292 118.927 69.5292C118.911 69.576 118.896 69.6228 118.88 69.671C118.786 69.8779 118.676 69.9952 118.513 70.1542C118.457 70.21 118.401 70.2658 118.342 70.3233C118.283 70.3807 118.224 70.4382 118.163 70.4974C118.105 70.5551 118.046 70.6128 117.986 70.6723C117.877 70.7797 117.767 70.887 117.658 70.994C117.523 71.1262 117.389 71.2594 117.256 71.3932C117.288 71.416 117.32 71.4388 117.353 71.4623C117.684 71.7081 117.981 71.9776 118.272 72.269C118.307 72.3043 118.343 72.3397 118.379 72.3761C118.927 72.931 118.927 72.931 118.927 73.1286C118.969 73.1286 119.012 73.1286 119.055 73.1286C119.118 73.2178 119.181 73.3076 119.239 73.4001C119.337 73.5526 119.445 73.6966 119.554 73.8417C119.66 74.0043 119.741 74.1754 119.827 74.3499C119.879 74.4503 119.879 74.4503 119.933 74.5527C120.201 75.0723 120.416 75.5924 120.598 76.1496C120.616 76.2049 120.635 76.2603 120.654 76.3173C120.704 76.4747 120.747 76.6329 120.791 76.7923C120.807 76.8497 120.824 76.9071 120.841 76.9662C121.014 77.6526 121.013 78.3279 121.009 79.0323C121.008 79.2386 121.009 79.4449 121.01 79.6512C121.011 80.3334 120.993 80.957 120.791 81.6129C120.765 81.71 120.74 81.8071 120.715 81.9042C120.554 82.4776 120.352 83.0075 120.084 83.5412C120.057 83.5971 120.031 83.653 120.004 83.7107C119.805 84.1254 119.565 84.5071 119.312 84.891C119.286 84.934 119.259 84.977 119.231 85.0213C119.176 85.1087 119.116 85.1932 119.055 85.2766C119.013 85.2766 118.97 85.2766 118.927 85.2766C118.911 85.3233 118.896 85.37 118.88 85.4181C118.786 85.6247 118.676 85.7454 118.516 85.9061C118.432 85.9906 118.432 85.9906 118.346 86.0769C118.287 86.135 118.228 86.193 118.167 86.2528C118.109 86.3116 118.051 86.3704 117.992 86.4309C117.935 86.4871 117.879 86.5432 117.821 86.601C117.769 86.6522 117.718 86.7033 117.665 86.756C117.511 86.8848 117.381 86.9496 117.191 87.012C117.191 87.0545 117.191 87.0969 117.191 87.1406C117.085 87.183 116.979 87.2254 116.87 87.2691C116.87 87.3116 116.87 87.354 116.87 87.3977C116.751 87.4763 116.629 87.549 116.504 87.6186C116.437 87.657 116.369 87.6954 116.299 87.7349C116.233 87.7721 116.167 87.8093 116.099 87.8476C116.04 87.8832 115.982 87.9189 115.922 87.9556C115.785 88.0358 115.675 88.0761 115.52 88.1047C115.59 88.2762 115.662 88.3751 115.795 88.5072C116.296 89.0104 116.682 89.5927 116.998 90.2258C117.035 90.2951 117.072 90.3645 117.11 90.4359C117.393 90.9761 117.589 91.5088 117.77 92.0898C117.785 92.1312 117.801 92.1726 117.817 92.2152C117.98 92.6601 118.041 93.1119 118.103 93.5801C118.115 93.6589 118.126 93.7377 118.138 93.8188C118.256 94.6813 118.233 95.4886 118.103 96.348C118.093 96.4244 118.082 96.5008 118.071 96.5795C118.006 97.0261 117.914 97.4472 117.77 97.8745C117.747 97.9446 117.747 97.9446 117.723 98.0162C117.541 98.5675 117.346 99.1012 117.063 99.6099C117.026 99.679 116.989 99.7481 116.951 99.8193C115.919 101.722 114.04 103.602 111.921 104.238C111.959 104.475 112.059 104.6 112.214 104.78C113.396 106.223 114.125 108.155 114.17 110.022C114.172 110.076 114.173 110.129 114.174 110.183C114.203 111.542 114.153 112.94 113.592 114.2C113.542 114.334 113.492 114.468 113.443 114.602C113.176 115.299 112.791 115.9 112.371 116.514C112.326 116.585 112.281 116.657 112.235 116.73C112.195 116.786 112.155 116.842 112.114 116.9C112.071 116.9 112.029 116.9 111.985 116.9C111.961 116.954 111.961 116.954 111.937 117.009C111.772 117.311 111.512 117.55 111.278 117.8C111.24 117.842 111.201 117.885 111.162 117.929C110.879 118.23 110.562 118.479 110.234 118.728C110.166 118.779 110.166 118.779 110.098 118.832C110.055 118.863 110.012 118.895 109.967 118.928C109.929 118.957 109.89 118.986 109.851 119.015C109.727 119.09 109.619 119.122 109.478 119.15C109.478 119.192 109.478 119.234 109.478 119.278C108.869 119.609 108.265 119.934 107.614 120.178C107.556 120.2 107.498 120.222 107.439 120.245C106.264 120.667 105.137 120.73 103.901 120.725C103.728 120.726 103.556 120.726 103.384 120.727C103.012 120.728 102.639 120.728 102.267 120.727C101.713 120.726 101.159 120.727 100.606 120.728C99.6159 120.729 98.6263 120.73 97.6367 120.729C96.7704 120.729 95.904 120.729 95.0377 120.729C94.9212 120.729 94.8048 120.729 94.6883 120.729C94.5128 120.729 94.3373 120.729 94.1618 120.729C92.5311 120.73 90.9003 120.731 89.2696 120.73C89.2082 120.73 89.1468 120.73 89.0835 120.73C88.5849 120.73 88.0863 120.729 87.5877 120.729C85.644 120.728 83.7004 120.729 81.7567 120.731C79.57 120.733 77.3833 120.733 75.1965 120.733C74.963 120.733 74.7295 120.733 74.496 120.733C74.4098 120.733 74.4098 120.733 74.3218 120.733C73.4567 120.732 72.5916 120.733 71.7265 120.734C70.7416 120.735 69.7568 120.735 68.7719 120.734C68.2219 120.733 67.6719 120.733 67.1219 120.734C66.7531 120.735 66.3843 120.735 66.0155 120.733C65.8063 120.733 65.5971 120.733 65.3879 120.734C64.0734 120.74 62.7745 120.626 61.5292 120.178C61.4443 120.149 61.3593 120.121 61.2743 120.093C60.3874 119.791 59.5051 119.442 58.7011 118.957C58.5926 118.892 58.5926 118.892 58.4819 118.827C58.0277 118.556 57.5768 118.281 57.1271 118.003C56.8596 117.838 56.5912 117.674 56.3229 117.511C56.1753 117.42 56.0277 117.33 55.8801 117.24C55.7954 117.188 55.7106 117.136 55.6258 117.085C55.2699 116.868 54.916 116.648 54.5666 116.421C54.2063 116.186 53.8418 115.969 53.4619 115.767C53.314 115.685 53.1761 115.598 53.0368 115.502C52.7195 115.285 52.3876 115.094 52.0552 114.901C51.7008 114.694 51.3545 114.477 51.0124 114.251C50.8541 114.146 50.719 114.068 50.5381 114.008C50.5381 113.965 50.5381 113.923 50.5381 113.879C50.4825 113.863 50.4269 113.846 50.3697 113.829C50.1444 113.748 49.9649 113.646 49.7628 113.517C49.6891 113.471 49.6154 113.425 49.5416 113.378C49.4857 113.343 49.4857 113.343 49.4286 113.307C49.2531 113.196 49.0761 113.088 48.8991 112.979C48.796 112.916 48.796 112.916 48.6907 112.851C48.5499 112.764 48.4089 112.678 48.2679 112.591C47.9421 112.391 47.6174 112.19 47.2963 111.983C46.8864 111.72 46.4631 111.482 46.0389 111.244C46.0389 111.201 46.0389 111.159 46.0389 111.115C45.9836 111.099 45.9284 111.083 45.8714 111.066C44.0922 110.419 42.6278 108.572 41.8286 106.932C41.7512 106.763 41.6766 106.594 41.6039 106.423C41.5727 106.356 41.5414 106.29 41.5093 106.221C41.3795 105.918 41.3134 105.6 41.2424 105.278C41.2284 105.218 41.2145 105.158 41.2002 105.096C41.0639 104.49 41.0157 103.896 41.0172 103.275C41.0171 103.214 41.0169 103.152 41.0168 103.089C41.0165 102.883 41.0167 102.678 41.0168 102.473C41.0167 102.324 41.0166 102.175 41.0164 102.026C41.016 101.616 41.016 101.207 41.0161 100.798C41.0161 100.402 41.0158 100.006 41.0155 99.6104C41.0149 98.7006 41.0147 97.7907 41.0147 96.8808C41.0147 96.178 41.0145 95.4751 41.0143 94.7723C41.0143 94.5698 41.0142 94.3673 41.0142 94.1649C41.0142 94.1145 41.0141 94.0642 41.0141 94.0124C41.0137 92.5968 41.0135 91.1812 41.0135 89.7657C41.0135 89.7123 41.0135 89.659 41.0135 89.604C41.0135 89.3336 41.0135 89.0632 41.0135 88.7928C41.0135 88.7391 41.0135 88.6854 41.0135 88.6301C41.0135 88.5215 41.0135 88.4129 41.0135 88.3043C41.0136 86.6153 41.0131 84.9263 41.0122 83.2374C41.0112 81.3388 41.0107 79.4402 41.0107 77.5417C41.0107 77.3391 41.0107 77.1365 41.0107 76.9339C41.0107 76.884 41.0107 76.8341 41.0107 76.7827C41.0107 75.9813 41.0103 75.1798 41.0098 74.3784C41.0092 73.5723 41.0092 72.7662 41.0096 71.9602C41.0098 71.5238 41.0098 71.0875 41.0092 70.6511C41.0087 70.2512 41.0088 69.8513 41.0094 69.4513C41.0095 69.3071 41.0094 69.1629 41.009 69.0187C41.006 67.7068 41.0626 66.4411 41.6039 65.2228C41.6355 65.1483 41.667 65.0737 41.6996 64.9969C41.9906 64.3262 42.3143 63.7454 42.7609 63.166C42.8081 63.1002 42.8553 63.0344 42.904 62.9667C43.1571 62.6161 43.4056 62.3074 43.7426 62.0349C43.8564 61.9464 43.8564 61.9464 43.9565 61.8366C44.0464 61.752 44.0464 61.752 44.1749 61.752C44.1749 61.7095 44.1749 61.6671 44.1749 61.6234C44.311 61.5124 44.311 61.5124 44.4883 61.3904C44.5464 61.3498 44.6046 61.3092 44.6645 61.2674C44.8177 61.1735 44.8177 61.1735 44.9462 61.1735C44.9462 61.1311 44.9462 61.0887 44.9462 61.0449C45.7566 60.5729 46.5621 60.2014 47.4498 59.8971C47.7353 59.7988 48.0118 59.688 48.2885 59.5666C48.409 59.5169 48.5295 59.4674 48.6501 59.418C49.1593 59.2061 49.6584 58.9732 50.1558 58.7351C50.1994 58.7143 50.2429 58.6936 50.2879 58.6723C50.3728 58.6319 50.4576 58.5911 50.5422 58.5501C50.7252 58.4632 50.847 58.4097 51.0523 58.4097C51.0523 58.3672 51.0523 58.3248 51.0523 58.2811C51.2102 58.2058 51.3682 58.1309 51.5264 58.0562C51.5713 58.0347 51.6162 58.0132 51.6625 57.9911C52.0019 57.8312 52.0019 57.8312 52.145 57.8312C52.145 57.7888 52.145 57.7464 52.145 57.7026C52.2118 57.67 52.2786 57.6374 52.3474 57.6037C52.7967 57.3826 53.2386 57.1594 53.6643 56.8947C53.8322 56.7931 54.0041 56.7016 54.1777 56.61C54.4428 56.4675 54.679 56.3113 54.9121 56.1211C55.0731 56.0059 55.2459 55.9269 55.423 55.8387C55.5692 55.7493 55.7134 55.659 55.8569 55.5655C55.8963 55.54 55.9357 55.5145 55.9762 55.4882C56.6044 55.0791 57.2108 54.6387 57.8128 54.1921C58.1088 53.9747 58.1088 53.9747 58.2511 53.9747C58.2511 53.9323 58.2511 53.8899 58.2511 53.8461C58.3774 53.7572 58.5063 53.6718 58.6368 53.589C58.7084 53.5334 58.7084 53.5334 58.7814 53.4766C58.8939 53.3962 58.8939 53.3962 59.0224 53.3962C59.0224 53.3538 59.0224 53.3114 59.0224 53.2677C59.0596 53.2518 59.0967 53.2359 59.1349 53.2195C59.2831 53.146 59.2831 53.146 59.3903 53.0269C59.5708 52.8482 59.7658 52.6959 59.9665 52.5406C60.0063 52.5094 60.0462 52.4783 60.0872 52.4463C60.2618 52.3101 60.4369 52.1747 60.6127 52.0402C60.662 52.0025 60.7112 51.9648 60.7619 51.9259C60.8037 51.8943 60.8456 51.8626 60.8887 51.83C61.023 51.7218 61.023 51.7218 61.1654 51.5742C61.3534 51.3867 61.5511 51.2169 61.7541 51.0462C62.116 50.74 62.4667 50.4241 62.809 50.0962C63.0581 49.8611 63.0581 49.8611 63.2003 49.8611C63.2215 49.7975 63.2427 49.7338 63.2646 49.6683C63.372 49.5623 63.372 49.5623 63.5056 49.4513C63.7153 49.2761 63.9075 49.0908 64.1002 48.897C64.1907 48.807 64.2811 48.717 64.3717 48.6271C64.5112 48.4885 64.6505 48.3497 64.7898 48.2109C64.8628 48.1382 64.9359 48.0655 65.0091 47.9929C65.4916 47.5186 65.4916 47.5186 65.9423 47.0144C65.9919 46.9569 66.0416 46.8994 66.0927 46.8402C66.1351 46.8402 66.1775 46.8402 66.2212 46.8402C66.2383 46.8024 66.2553 46.7646 66.2728 46.7257C66.3523 46.5783 66.4368 46.4779 66.5529 46.3579C66.593 46.3159 66.6332 46.2739 66.6745 46.2307C66.7172 46.1866 66.7598 46.1425 66.8037 46.097C67.1407 45.7433 67.4615 45.3863 67.7659 45.0041C67.8878 44.8533 68.0149 44.7097 68.1455 44.5664C68.3608 44.3272 68.56 44.0782 68.7561 43.8233C68.7842 43.7867 68.8123 43.7502 68.8413 43.7126C68.9906 43.5172 68.9906 43.5172 69.1136 43.305C69.156 43.305 69.1985 43.305 69.2422 43.305C69.2586 43.2581 69.275 43.2113 69.2919 43.1629C69.3751 42.9736 69.471 42.8444 69.6037 42.6864C70.3868 41.7286 71.0701 40.681 71.7072 39.6215C71.7837 39.4967 71.8634 39.3738 71.945 39.2522C72.0515 39.0913 72.1451 38.9321 72.235 38.7616C72.3871 38.4781 72.5464 38.1998 72.7092 37.9225C73.2859 36.9391 73.7688 35.9245 74.2339 34.8843C74.2921 34.7544 74.3505 34.6245 74.4092 34.4948C75.0021 33.1841 75.4895 31.8524 75.9368 30.486C75.9752 30.3694 76.0142 30.253 76.0536 30.1367C76.2028 29.6952 76.3396 29.2518 76.4651 28.803C76.4841 28.7349 76.5031 28.6669 76.5227 28.5968C76.6649 28.0802 76.7939 27.5613 76.915 27.0394C76.9311 26.9703 76.9472 26.9012 76.9638 26.83C77.0272 26.5509 77.0872 26.2759 77.1184 25.9912C77.1467 25.7679 77.2045 25.5845 77.2765 25.3723C77.2999 25.2242 77.3198 25.0754 77.3368 24.9264C77.3769 24.594 77.4309 24.2699 77.5015 23.9422C77.5894 23.5203 77.6399 23.1012 77.6814 22.6725C77.7179 22.2949 77.7667 21.9208 77.8251 21.5459C77.9176 20.8558 77.9373 20.165 77.9548 19.4698C77.9581 19.3394 77.9618 19.2089 77.9655 19.0784C77.9684 18.9635 77.9684 18.9635 77.9714 18.8462C77.9838 18.6188 78.0151 18.3988 78.0478 18.1735C78.0552 18.0483 78.0605 17.9229 78.0637 17.7974C78.0667 17.6925 78.0667 17.6925 78.0698 17.5855C78.0728 17.4749 78.0728 17.4749 78.076 17.362C78.1343 15.6307 78.2896 13.9739 79.2048 12.453C79.2444 12.3868 79.284 12.3205 79.3248 12.2522C79.5512 11.884 79.5512 11.884 79.6547 11.746C79.6971 11.746 79.7396 11.746 79.7833 11.746C79.7983 11.7101 79.8133 11.6743 79.8287 11.6373C80.3161 10.7671 81.3836 10.2475 82.29 9.94632C82.3333 9.93005 82.3767 9.91379 82.4213 9.89703C83.052 9.68878 83.7064 9.71849 84.3629 9.72135Z" fill="#E7E8EE"/>
<path d="M20.1123 56.9227C20.4845 56.9229 20.8568 56.9227 21.229 56.9226C21.8523 56.9225 22.4756 56.9226 23.099 56.923C23.8162 56.9233 24.5334 56.9232 25.2507 56.9228C25.8717 56.9225 26.4927 56.9225 27.1137 56.9227C27.4824 56.9228 27.8511 56.9228 28.2198 56.9226C28.5658 56.9224 28.9117 56.9225 29.2577 56.9229C29.3835 56.923 29.5094 56.923 29.6352 56.9228C30.2459 56.9222 30.8551 56.9283 31.4651 56.9587C31.5374 56.9622 31.5374 56.9622 31.6112 56.9658C33.1486 57.0519 34.4202 57.595 35.6263 58.5382C35.6636 58.5664 35.7009 58.5946 35.7393 58.6236C36.1567 58.9513 36.4748 59.3841 36.7993 59.7996C36.8403 59.8515 36.8403 59.8515 36.882 59.9044C37.0513 60.1242 37.1798 60.3443 37.2975 60.595C37.3246 60.6456 37.3518 60.6963 37.3798 60.7484C37.5574 61.0836 37.6783 61.4066 37.7682 61.7751C37.8093 61.9469 37.8093 61.9469 37.8742 62.1171C37.9473 62.3532 37.9837 62.5845 38.0109 62.8291C38.019 62.9006 38.019 62.9006 38.0273 62.9736C38.0833 63.5058 38.0914 64.0365 38.0951 64.5711C38.0963 64.6831 38.0975 64.7952 38.0988 64.9072C38.1021 65.2136 38.1046 65.5199 38.1069 65.8262C38.1084 66.0241 38.1102 66.222 38.112 66.4199C38.1443 69.9601 38.1425 73.5005 38.1417 77.0408C38.1416 77.7215 38.1416 78.4021 38.1416 79.0828C38.1417 79.1566 38.1417 79.1566 38.1417 79.2319C38.1417 79.4319 38.1417 79.6319 38.1417 79.8319C38.1419 81.6875 38.1417 83.5431 38.1414 85.3987C38.1411 87.0334 38.1411 88.6681 38.1414 90.3027C38.1418 92.1587 38.1419 94.0147 38.1417 95.8707C38.1417 96.0697 38.1417 96.2687 38.1416 96.4676C38.1416 96.5166 38.1416 96.5656 38.1416 96.616C38.1416 97.2958 38.1416 97.9756 38.1418 98.6554C38.1434 105.774 38.1434 105.774 38.1102 108.236C38.1085 108.366 38.107 108.496 38.1055 108.626C38.0772 110.947 38.0772 110.947 37.7916 111.822C37.7776 111.867 37.7636 111.912 37.7491 111.959C37.633 112.319 37.4855 112.65 37.2975 112.979C37.266 113.04 37.2345 113.1 37.2021 113.162C36.6695 114.145 35.6738 115.247 34.6622 115.743C34.4694 115.795 34.4694 115.795 34.3408 115.807C34.3408 115.85 34.3408 115.892 34.3408 115.936C34.1815 115.996 34.0222 116.056 33.8628 116.117C33.8186 116.133 33.7744 116.15 33.7288 116.167C33.6397 116.201 33.5503 116.234 33.4609 116.267C33.3688 116.301 33.277 116.335 33.1856 116.371C32.78 116.521 32.3883 116.562 31.9586 116.59C31.8854 116.595 31.8121 116.6 31.7367 116.605C30.9976 116.653 30.2603 116.661 29.52 116.659C29.3744 116.66 29.2287 116.66 29.0831 116.66C28.6932 116.661 28.3033 116.66 27.9134 116.66C27.5018 116.66 27.0902 116.66 26.6785 116.66C25.9437 116.661 25.2089 116.66 24.4741 116.659C23.8119 116.659 23.1497 116.659 22.4875 116.66C21.713 116.66 20.9386 116.661 20.1641 116.66C19.7562 116.66 19.3482 116.66 18.9403 116.66C16.0266 116.663 16.0266 116.663 14.9783 116.59C14.9134 116.585 14.8484 116.581 14.7815 116.576C14.4005 116.543 14.0653 116.458 13.7085 116.321C13.637 116.296 13.5655 116.27 13.4919 116.244C13.0575 116.079 12.6408 115.896 12.2302 115.679C12.2302 115.636 12.2302 115.594 12.2302 115.55C12.103 115.508 11.9757 115.465 11.8446 115.422C11.8446 115.379 11.8446 115.337 11.8446 115.293C11.7995 115.278 11.7544 115.264 11.708 115.249C11.3455 115.083 11.1013 114.816 10.8541 114.512C10.7469 114.384 10.7469 114.384 10.5952 114.241C10.3221 113.96 10.1262 113.63 9.91632 113.301C9.86201 113.216 9.86201 113.216 9.8066 113.13C9.43954 112.542 9.25129 111.976 9.12016 111.296C9.09929 111.122 9.09929 111.122 9.01647 111.051C8.93974 110.546 8.94306 110.033 8.94411 109.523C8.94401 109.443 8.94392 109.363 8.94382 109.28C8.94357 109.059 8.94372 108.837 8.94394 108.616C8.9441 108.374 8.94389 108.133 8.94373 107.892C8.9435 107.469 8.9435 107.046 8.94367 106.624C8.94391 105.995 8.94379 105.367 8.94359 104.738C8.94325 103.615 8.94328 102.493 8.94347 101.37C8.94363 100.388 8.94367 99.4055 8.94359 98.4231C8.94359 98.358 8.94358 98.2928 8.94358 98.2256C8.94356 97.9611 8.94354 97.6966 8.94352 97.4321C8.94332 94.9506 8.9435 92.4692 8.94384 89.9877C8.94415 87.7831 8.94412 85.5785 8.94382 83.3739C8.94347 80.897 8.94333 78.4201 8.94353 75.9432C8.94355 75.6791 8.94357 75.4151 8.94359 75.151C8.9436 75.086 8.9436 75.021 8.94361 74.954C8.94368 73.9722 8.9436 72.9905 8.94343 72.0087C8.94325 70.8923 8.9433 69.776 8.94365 68.6597C8.94383 68.0349 8.94385 67.4101 8.9436 66.7854C8.94346 66.368 8.94355 65.9507 8.94383 65.5334C8.94398 65.2956 8.94403 65.0578 8.9438 64.8201C8.94356 64.5637 8.94381 64.3074 8.94411 64.0511C8.94396 63.9776 8.94381 63.904 8.94365 63.8283C8.94634 62.6752 8.94634 62.6752 9.14502 62.1376C9.16601 62.0414 9.18603 61.945 9.20528 61.8484C9.25863 61.5991 9.34413 61.3985 9.4664 61.1735C9.49291 61.1072 9.51942 61.0409 9.54674 60.9726C9.85226 60.2618 10.2999 59.6828 10.8162 59.1167C10.8686 59.0589 10.9211 59.001 10.9751 58.9414C11.6993 58.1807 12.5928 57.6625 13.58 57.317C13.6569 57.2838 13.7338 57.2507 13.813 57.2166C14.481 56.968 15.2422 56.9722 15.946 56.956C16.0145 56.9542 16.0145 56.9542 16.0844 56.9524C17.4267 56.9176 18.7696 56.9219 20.1123 56.9227Z" fill="#407BFF"/>
<path d="M84.3629 9.72135C84.4259 9.72138 84.4889 9.72141 84.5538 9.72144C85.504 9.72374 86.3935 9.77757 87.3034 10.0749C87.3784 10.0991 87.3784 10.0991 87.4549 10.1237C90.2528 11.0424 92.5956 12.8931 94.1962 15.3637C94.2651 15.4699 94.3355 15.5752 94.4086 15.6786C94.7076 16.1026 94.926 16.5635 95.1518 17.029C95.2218 17.1704 95.2983 17.308 95.374 17.4464C95.6419 17.9804 95.8001 18.5698 95.9806 19.1376C95.9944 19.1808 96.0083 19.2239 96.0226 19.2683C96.1578 19.6891 96.2794 20.1117 96.3815 20.5418C96.4116 20.6663 96.443 20.7904 96.4768 20.914C96.641 21.5473 96.6935 22.1861 96.7477 22.8365C96.7639 23.0302 96.7811 23.2238 96.7984 23.4173C96.8696 24.2292 96.9032 25.0127 96.8345 25.826C96.7919 26.4143 96.7751 27.0045 96.7519 27.5938C96.731 28.1174 96.7097 28.641 96.6876 29.1645C96.6851 29.2245 96.6826 29.2844 96.6801 29.3461C96.6536 29.9743 96.6196 30.5947 96.5269 31.2173C96.4732 31.6003 96.4217 31.98 96.3984 32.3662C96.3742 32.7409 96.3128 33.1047 96.2479 33.4739C96.1806 33.8608 96.1309 34.2479 96.0921 34.6387C96.0644 34.9011 96.0136 35.146 95.9465 35.4001C95.8976 35.6065 95.8783 35.8151 95.856 36.0259C95.8124 36.4103 95.7416 36.7752 95.6409 37.1495C95.5973 37.3182 95.5641 37.4851 95.5347 37.6569C95.4128 38.3587 95.248 39.0543 95.0709 39.7441C95.0255 39.9264 94.9822 40.1089 94.9399 40.2919C94.926 40.3514 94.9122 40.4108 94.8979 40.4721C94.8705 40.5902 94.8433 40.7084 94.8165 40.8266C94.7468 41.1256 94.6637 41.4072 94.5513 41.6926C94.4533 41.9606 94.3861 42.238 94.3134 42.5137C93.9471 43.8781 93.9471 43.8781 93.7173 44.4039C93.6252 44.6266 93.5525 44.8557 93.4779 45.0847C93.4611 45.1353 93.4444 45.186 93.4272 45.2381C93.3529 45.4633 93.2792 45.6888 93.2057 45.9142C93.1842 45.9798 93.1626 46.0455 93.1404 46.1131C93.1223 46.169 93.1041 46.2249 93.0854 46.2825C93.0257 46.4494 92.9582 46.6113 92.8874 46.7738C92.7712 47.0434 92.6611 47.3156 92.5499 47.5874C92.5242 47.65 92.4986 47.7127 92.4721 47.7772C92.3351 48.113 92.2006 48.4494 92.0718 48.7885C91.9187 49.1912 91.7501 49.5823 91.5564 49.967C91.433 50.2128 91.3154 50.461 91.1985 50.7099C90.8133 51.5293 90.4018 52.333 89.9615 53.1242C89.9188 53.201 89.9188 53.201 89.8752 53.2794C89.8537 53.3179 89.8323 53.3565 89.8102 53.3962C89.8781 53.3964 89.8781 53.3964 89.9474 53.3966C92.6343 53.4032 95.3212 53.4101 98.0081 53.4175C98.3311 53.4184 98.6541 53.4193 98.9771 53.4202C99.0414 53.4203 99.1057 53.4205 99.172 53.4207C100.212 53.4235 101.251 53.4261 102.291 53.4287C103.358 53.4313 104.426 53.4341 105.494 53.4372C106.152 53.439 106.81 53.4407 107.468 53.4422C107.92 53.4432 108.372 53.4445 108.824 53.4459C109.085 53.4467 109.345 53.4474 109.605 53.4479C112.343 53.4527 112.343 53.4527 113.226 53.6734C113.287 53.6879 113.347 53.7023 113.409 53.7173C114.189 53.9088 114.873 54.1829 115.584 54.5532C115.732 54.6271 115.879 54.7007 116.026 54.7741C116.136 54.829 116.246 54.8839 116.356 54.9388C116.356 54.9812 116.356 55.0237 116.356 55.0674C116.412 55.0824 116.467 55.0974 116.525 55.1128C116.77 55.2069 116.921 55.3257 117.119 55.4972C117.169 55.5405 117.169 55.5405 117.221 55.5847C117.318 55.6689 117.416 55.7538 117.513 55.8387C117.56 55.8789 117.608 55.9192 117.657 55.9607C118.092 56.3327 118.518 56.7291 118.862 57.1884C118.902 57.2372 118.941 57.286 118.981 57.3363C119.118 57.5082 119.25 57.6824 119.381 57.8593C119.424 57.9176 119.467 57.9758 119.511 58.0358C119.635 58.2193 119.731 58.4029 119.827 58.6025C119.879 58.7029 119.879 58.7029 119.933 58.8054C120.201 59.3249 120.416 59.845 120.598 60.4022C120.616 60.4583 120.635 60.5144 120.654 60.5722C120.685 60.6726 120.715 60.7734 120.743 60.8748C120.774 60.9848 120.806 61.0944 120.841 61.2034C121.028 61.8758 121.013 62.55 121.009 63.2433C121.008 63.4548 121.009 63.6663 121.01 63.8778C121.011 64.5678 120.998 65.2026 120.791 65.8656C120.765 65.9634 120.739 66.0612 120.713 66.1591C120.369 67.3613 119.836 68.5407 119.055 69.5292C119.013 69.5292 118.97 69.5292 118.927 69.5292C118.911 69.576 118.896 69.6228 118.88 69.671C118.786 69.8779 118.676 69.9952 118.513 70.1542C118.457 70.21 118.401 70.2658 118.342 70.3233C118.283 70.3807 118.224 70.4382 118.163 70.4974C118.105 70.5551 118.046 70.6128 117.986 70.6723C117.877 70.7797 117.767 70.887 117.658 70.994C117.523 71.1262 117.389 71.2594 117.256 71.3932C117.288 71.416 117.32 71.4388 117.353 71.4623C117.684 71.7081 117.981 71.9776 118.272 72.269C118.307 72.3043 118.343 72.3397 118.379 72.3761C118.927 72.931 118.927 72.931 118.927 73.1286C118.969 73.1286 119.012 73.1286 119.055 73.1286C119.118 73.2178 119.181 73.3076 119.239 73.4001C119.337 73.5526 119.445 73.6966 119.554 73.8417C119.66 74.0043 119.741 74.1754 119.827 74.3499C119.879 74.4503 119.879 74.4503 119.933 74.5527C120.201 75.0723 120.416 75.5924 120.598 76.1496C120.616 76.2049 120.635 76.2603 120.654 76.3173C120.704 76.4747 120.747 76.6329 120.791 76.7923C120.807 76.8497 120.824 76.9071 120.841 76.9662C121.014 77.6526 121.013 78.3279 121.009 79.0323C121.008 79.2386 121.009 79.4449 121.01 79.6512C121.011 80.3334 120.993 80.957 120.791 81.6129C120.765 81.71 120.74 81.8071 120.715 81.9042C120.554 82.4776 120.352 83.0075 120.084 83.5412C120.057 83.5971 120.031 83.653 120.004 83.7107C119.805 84.1254 119.565 84.5071 119.312 84.891C119.286 84.934 119.259 84.977 119.231 85.0213C119.176 85.1087 119.116 85.1932 119.055 85.2766C119.013 85.2766 118.97 85.2766 118.927 85.2766C118.911 85.3233 118.896 85.37 118.88 85.4181C118.786 85.6247 118.676 85.7454 118.516 85.9061C118.432 85.9906 118.432 85.9906 118.346 86.0769C118.287 86.135 118.228 86.193 118.167 86.2528C118.109 86.3116 118.051 86.3704 117.992 86.4309C117.935 86.4871 117.879 86.5432 117.821 86.601C117.769 86.6522 117.718 86.7033 117.665 86.756C117.511 86.8848 117.381 86.9496 117.191 87.012C117.191 87.0545 117.191 87.0969 117.191 87.1406C117.085 87.183 116.979 87.2254 116.87 87.2691C116.87 87.3116 116.87 87.354 116.87 87.3977C116.751 87.4763 116.629 87.549 116.504 87.6186C116.437 87.657 116.369 87.6954 116.299 87.7349C116.233 87.7721 116.167 87.8093 116.099 87.8476C116.04 87.8832 115.982 87.9189 115.922 87.9556C115.785 88.0358 115.675 88.0761 115.52 88.1047C115.59 88.2762 115.662 88.3751 115.795 88.5072C116.296 89.0104 116.682 89.5927 116.998 90.2258C117.035 90.2951 117.072 90.3645 117.11 90.4359C117.393 90.9761 117.589 91.5088 117.77 92.0898C117.785 92.1312 117.801 92.1726 117.817 92.2152C117.98 92.6601 118.041 93.1119 118.103 93.5801C118.115 93.6589 118.126 93.7377 118.138 93.8188C118.256 94.6813 118.233 95.4886 118.103 96.348C118.093 96.4244 118.082 96.5008 118.071 96.5795C118.006 97.0261 117.914 97.4472 117.77 97.8745C117.747 97.9446 117.747 97.9446 117.723 98.0162C117.541 98.5675 117.346 99.1012 117.063 99.6099C117.026 99.679 116.989 99.7481 116.951 99.8193C115.919 101.722 114.04 103.602 111.921 104.238C111.959 104.475 112.059 104.6 112.214 104.78C113.396 106.223 114.125 108.155 114.17 110.022C114.172 110.076 114.173 110.129 114.174 110.183C114.203 111.542 114.153 112.94 113.592 114.2C113.542 114.334 113.492 114.468 113.443 114.602C113.176 115.299 112.791 115.9 112.371 116.514C112.326 116.585 112.281 116.657 112.235 116.73C112.195 116.786 112.155 116.842 112.114 116.9C112.071 116.9 112.029 116.9 111.985 116.9C111.961 116.954 111.961 116.954 111.937 117.009C111.772 117.311 111.512 117.55 111.278 117.8C111.24 117.842 111.201 117.885 111.162 117.929C110.879 118.23 110.562 118.479 110.234 118.728C110.166 118.779 110.166 118.779 110.098 118.832C110.055 118.863 110.012 118.895 109.967 118.928C109.929 118.957 109.89 118.986 109.851 119.015C109.727 119.09 109.619 119.122 109.478 119.15C109.478 119.192 109.478 119.234 109.478 119.278C108.869 119.609 108.265 119.934 107.614 120.178C107.556 120.2 107.498 120.222 107.439 120.245C106.264 120.667 105.137 120.73 103.901 120.725C103.728 120.726 103.556 120.726 103.384 120.727C103.012 120.728 102.639 120.728 102.267 120.727C101.713 120.726 101.159 120.727 100.606 120.728C99.6159 120.729 98.6263 120.73 97.6367 120.729C96.7704 120.729 95.904 120.729 95.0377 120.729C94.9212 120.729 94.8048 120.729 94.6883 120.729C94.5128 120.729 94.3373 120.729 94.1618 120.729C92.5311 120.73 90.9003 120.731 89.2696 120.73C89.2082 120.73 89.1468 120.73 89.0835 120.73C88.5849 120.73 88.0863 120.729 87.5877 120.729C85.644 120.728 83.7004 120.729 81.7567 120.731C79.57 120.733 77.3833 120.733 75.1965 120.733C74.963 120.733 74.7295 120.733 74.496 120.733C74.4098 120.733 74.4098 120.733 74.3218 120.733C73.4567 120.732 72.5916 120.733 71.7265 120.734C70.7416 120.735 69.7568 120.735 68.7719 120.734C68.2219 120.733 67.6719 120.733 67.1219 120.734C66.7531 120.735 66.3843 120.735 66.0155 120.733C65.8063 120.733 65.5971 120.733 65.3879 120.734C64.0734 120.74 62.7745 120.626 61.5292 120.178C61.4443 120.149 61.3593 120.121 61.2743 120.093C60.3874 119.791 59.5051 119.442 58.7011 118.957C58.5926 118.892 58.5926 118.892 58.4819 118.827C58.0277 118.556 57.5768 118.281 57.1271 118.003C56.8596 117.838 56.5912 117.674 56.3229 117.511C56.1753 117.42 56.0277 117.33 55.8801 117.24C55.7954 117.188 55.7106 117.136 55.6258 117.085C55.2699 116.868 54.916 116.648 54.5666 116.421C54.2063 116.186 53.8418 115.969 53.4619 115.767C53.314 115.685 53.1761 115.598 53.0368 115.502C52.7195 115.285 52.3876 115.094 52.0552 114.901C51.7008 114.694 51.3545 114.477 51.0124 114.251C50.8541 114.146 50.719 114.068 50.5381 114.008C50.5381 113.965 50.5381 113.923 50.5381 113.879C50.4825 113.863 50.4269 113.846 50.3697 113.829C50.1444 113.748 49.9649 113.646 49.7628 113.517C49.6891 113.471 49.6154 113.425 49.5416 113.378C49.4857 113.343 49.4857 113.343 49.4286 113.307C49.2531 113.196 49.0761 113.088 48.8991 112.979C48.796 112.916 48.796 112.916 48.6907 112.851C48.5499 112.764 48.4089 112.678 48.2679 112.591C47.9421 112.391 47.6174 112.19 47.2963 111.983C46.8864 111.72 46.4631 111.482 46.0389 111.244C46.0389 111.201 46.0389 111.159 46.0389 111.115C45.9836 111.099 45.9284 111.083 45.8714 111.066C44.0922 110.419 42.6278 108.572 41.8286 106.932C41.7512 106.763 41.6766 106.594 41.6039 106.423C41.5727 106.356 41.5414 106.29 41.5093 106.221C41.3795 105.918 41.3134 105.6 41.2424 105.278C41.2284 105.218 41.2145 105.158 41.2002 105.096C41.0639 104.49 41.0157 103.896 41.0172 103.275C41.0171 103.214 41.0169 103.152 41.0168 103.089C41.0165 102.883 41.0167 102.678 41.0168 102.473C41.0167 102.324 41.0166 102.175 41.0164 102.026C41.016 101.616 41.016 101.207 41.0161 100.798C41.0161 100.402 41.0158 100.006 41.0155 99.6104C41.0149 98.7006 41.0147 97.7907 41.0147 96.8808C41.0147 96.178 41.0145 95.4751 41.0143 94.7723C41.0143 94.5698 41.0142 94.3673 41.0142 94.1649C41.0142 94.1145 41.0141 94.0642 41.0141 94.0124C41.0137 92.5968 41.0135 91.1812 41.0135 89.7657C41.0135 89.7123 41.0135 89.659 41.0135 89.604C41.0135 89.3336 41.0135 89.0632 41.0135 88.7928C41.0135 88.7391 41.0135 88.6854 41.0135 88.6301C41.0135 88.5215 41.0135 88.4129 41.0135 88.3043C41.0136 86.6153 41.0131 84.9263 41.0122 83.2374C41.0112 81.3388 41.0107 79.4402 41.0107 77.5417C41.0107 77.3391 41.0107 77.1365 41.0107 76.9339C41.0107 76.884 41.0107 76.8341 41.0107 76.7827C41.0107 75.9813 41.0103 75.1798 41.0098 74.3784C41.0092 73.5723 41.0092 72.7662 41.0096 71.9602C41.0098 71.5238 41.0098 71.0875 41.0092 70.6511C41.0087 70.2512 41.0088 69.8513 41.0094 69.4513C41.0095 69.3071 41.0094 69.1629 41.009 69.0187C41.006 67.7068 41.0626 66.4411 41.6039 65.2228C41.6355 65.1483 41.667 65.0737 41.6996 64.9969C41.9906 64.3262 42.3143 63.7454 42.7609 63.166C42.8081 63.1002 42.8553 63.0344 42.904 62.9667C43.1571 62.6161 43.4056 62.3074 43.7426 62.0349C43.8564 61.9464 43.8564 61.9464 43.9565 61.8366C44.0464 61.752 44.0464 61.752 44.1749 61.752C44.1749 61.7095 44.1749 61.6671 44.1749 61.6234C44.311 61.5124 44.311 61.5124 44.4883 61.3904C44.5464 61.3498 44.6046 61.3092 44.6645 61.2674C44.8177 61.1735 44.8177 61.1735 44.9462 61.1735C44.9462 61.1311 44.9462 61.0887 44.9462 61.0449C45.7566 60.5729 46.5621 60.2014 47.4498 59.8971C47.7353 59.7988 48.0118 59.688 48.2885 59.5666C48.409 59.5169 48.5295 59.4674 48.6501 59.418C49.1593 59.2061 49.6584 58.9732 50.1558 58.7351C50.1994 58.7143 50.2429 58.6936 50.2879 58.6723C50.3728 58.6319 50.4576 58.5911 50.5422 58.5501C50.7252 58.4632 50.847 58.4097 51.0523 58.4097C51.0523 58.3672 51.0523 58.3248 51.0523 58.2811C51.2102 58.2058 51.3682 58.1309 51.5264 58.0562C51.5713 58.0347 51.6162 58.0132 51.6625 57.9911C52.0019 57.8312 52.0019 57.8312 52.145 57.8312C52.145 57.7888 52.145 57.7464 52.145 57.7026C52.2118 57.67 52.2786 57.6374 52.3474 57.6037C52.7967 57.3826 53.2386 57.1594 53.6643 56.8947C53.8322 56.7931 54.0041 56.7016 54.1777 56.61C54.4428 56.4675 54.679 56.3113 54.9121 56.1211C55.0731 56.0059 55.2459 55.9269 55.423 55.8387C55.5692 55.7493 55.7134 55.659 55.8569 55.5655C55.8963 55.54 55.9357 55.5145 55.9762 55.4882C56.6044 55.0791 57.2108 54.6387 57.8128 54.1921C58.1088 53.9747 58.1088 53.9747 58.2511 53.9747C58.2511 53.9323 58.2511 53.8899 58.2511 53.8461C58.3774 53.7572 58.5063 53.6718 58.6368 53.589C58.7084 53.5334 58.7084 53.5334 58.7814 53.4766C58.8939 53.3962 58.8939 53.3962 59.0224 53.3962C59.0224 53.3538 59.0224 53.3114 59.0224 53.2677C59.0596 53.2518 59.0967 53.2359 59.1349 53.2195C59.2831 53.146 59.2831 53.146 59.3903 53.0269C59.5708 52.8482 59.7658 52.6959 59.9665 52.5406C60.0063 52.5094 60.0462 52.4783 60.0872 52.4463C60.2618 52.3101 60.4369 52.1747 60.6127 52.0402C60.662 52.0025 60.7112 51.9648 60.7619 51.9259C60.8037 51.8943 60.8456 51.8626 60.8887 51.83C61.023 51.7218 61.023 51.7218 61.1654 51.5742C61.3534 51.3867 61.5511 51.2169 61.7541 51.0462C62.116 50.74 62.4667 50.4241 62.809 50.0962C63.0581 49.8611 63.0581 49.8611 63.2003 49.8611C63.2215 49.7975 63.2427 49.7338 63.2646 49.6683C63.372 49.5623 63.372 49.5623 63.5056 49.4513C63.7153 49.2761 63.9075 49.0908 64.1002 48.897C64.1907 48.807 64.2811 48.717 64.3717 48.6271C64.5112 48.4885 64.6505 48.3497 64.7898 48.2109C64.8628 48.1382 64.9359 48.0655 65.0091 47.9929C65.4916 47.5186 65.4916 47.5186 65.9423 47.0144C65.9919 46.9569 66.0416 46.8994 66.0927 46.8402C66.1351 46.8402 66.1775 46.8402 66.2212 46.8402C66.2383 46.8024 66.2553 46.7646 66.2728 46.7257C66.3523 46.5783 66.4368 46.4779 66.5529 46.3579C66.593 46.3159 66.6332 46.2739 66.6745 46.2307C66.7172 46.1866 66.7598 46.1425 66.8037 46.097C67.1407 45.7433 67.4615 45.3863 67.7659 45.0041C67.8878 44.8533 68.0149 44.7097 68.1455 44.5664C68.3608 44.3272 68.56 44.0782 68.7561 43.8233C68.7842 43.7867 68.8123 43.7502 68.8413 43.7126C68.9906 43.5172 68.9906 43.5172 69.1136 43.305C69.156 43.305 69.1985 43.305 69.2422 43.305C69.2586 43.2581 69.275 43.2113 69.2919 43.1629C69.3751 42.9736 69.471 42.8444 69.6037 42.6864C70.3868 41.7286 71.0701 40.681 71.7072 39.6215C71.7837 39.4967 71.8634 39.3738 71.945 39.2522C72.0515 39.0913 72.1451 38.9321 72.235 38.7616C72.3871 38.4781 72.5464 38.1998 72.7092 37.9225C73.2859 36.9391 73.7688 35.9245 74.2339 34.8843C74.2921 34.7544 74.3505 34.6245 74.4092 34.4948C75.0021 33.1841 75.4895 31.8524 75.9368 30.486C75.9752 30.3694 76.0142 30.253 76.0536 30.1367C76.2028 29.6952 76.3396 29.2518 76.4651 28.803C76.4841 28.7349 76.5031 28.6669 76.5227 28.5968C76.6649 28.0802 76.7939 27.5613 76.915 27.0394C76.9311 26.9703 76.9472 26.9012 76.9638 26.83C77.0272 26.5509 77.0872 26.2759 77.1184 25.9912C77.1467 25.7679 77.2045 25.5845 77.2765 25.3723C77.2999 25.2242 77.3198 25.0754 77.3368 24.9264C77.3769 24.594 77.4309 24.2699 77.5015 23.9422C77.5894 23.5203 77.6399 23.1012 77.6814 22.6725C77.7179 22.2949 77.7667 21.9208 77.8251 21.5459C77.9176 20.8558 77.9373 20.165 77.9548 19.4698C77.9581 19.3394 77.9618 19.2089 77.9655 19.0784C77.9684 18.9635 77.9684 18.9635 77.9714 18.8462C77.9838 18.6188 78.0151 18.3988 78.0478 18.1735C78.0552 18.0483 78.0605 17.9229 78.0637 17.7974C78.0667 17.6925 78.0667 17.6925 78.0698 17.5855C78.0728 17.4749 78.0728 17.4749 78.076 17.362C78.1343 15.6307 78.2896 13.9739 79.2048 12.453C79.2444 12.3868 79.284 12.3205 79.3248 12.2522C79.5512 11.884 79.5512 11.884 79.6547 11.746C79.6971 11.746 79.7396 11.746 79.7833 11.746C79.7983 11.7101 79.8133 11.6743 79.8287 11.6373C80.3161 10.7671 81.3836 10.2475 82.29 9.94632C82.3333 9.93005 82.3767 9.91379 82.4213 9.89703C83.052 9.68878 83.7064 9.71849 84.3629 9.72135ZM82.9167 14.2487C82.2004 15.1853 82.1653 16.6162 82.1361 17.7459C82.1319 17.8884 82.1276 18.0308 82.1232 18.1732C82.121 18.2472 82.1188 18.3213 82.1164 18.3976C82.0108 21.7589 81.595 25.0564 80.8117 28.329C80.801 28.3738 80.7903 28.4187 80.7792 28.4649C80.2384 30.7186 79.5218 32.9402 78.6263 35.0778C78.596 35.1514 78.5657 35.225 78.5345 35.3008C77.7355 37.2348 76.808 39.1304 75.7339 40.9269C75.7011 40.9819 75.6682 41.037 75.6343 41.0938C74.2985 43.3169 72.781 45.41 71.0979 47.3818C70.9211 47.5892 70.7495 47.7999 70.5799 48.0132C70.2809 48.3811 69.9564 48.7234 69.6293 49.0664C69.4072 49.2993 69.1887 49.5345 68.975 49.7752C68.6763 50.1077 68.3653 50.4259 68.0488 50.7416C67.9641 50.8264 67.9641 50.8264 67.8777 50.9129C67.7594 51.0313 67.6409 51.1496 67.5224 51.2679C67.3421 51.4479 67.1621 51.6282 66.9821 51.8086C66.8664 51.9243 66.7506 52.04 66.6348 52.1557C66.555 52.2356 66.555 52.2356 66.4736 52.3172C66.199 52.5907 65.9201 52.855 65.6257 53.1072C65.4485 53.26 65.2791 53.421 65.1085 53.581C64.8018 53.8664 64.487 54.1365 64.1602 54.3988C63.9363 54.5821 63.7192 54.7722 63.5016 54.9629C63.0884 55.3235 62.6643 55.6661 62.2301 56.0009C62.0978 56.1034 61.9662 56.2068 61.8347 56.3104C58.0099 59.3175 53.75 61.8442 49.2089 63.6003C47.9365 64.0852 47.9365 64.0852 46.8102 64.8372C46.7746 64.8629 46.7391 64.8885 46.7025 64.915C45.8354 65.5728 45.3103 66.7462 45.139 67.7938C45.0932 68.284 45.1042 68.7776 45.1064 69.2693C45.1061 69.4179 45.1057 69.5664 45.1052 69.715C45.1041 70.1212 45.1046 70.5275 45.1054 70.9337C45.1061 71.3274 45.1053 71.7212 45.1046 72.1149C45.1033 72.9695 45.1034 73.8241 45.1041 74.6786C45.1048 75.4265 45.1049 76.1744 45.1046 76.9223C45.1046 76.972 45.1046 77.0217 45.1046 77.0728C45.1045 77.2746 45.1044 77.4763 45.1043 77.678C45.1035 79.5687 45.1043 81.4594 45.1056 83.3502C45.1069 85.0284 45.1068 86.7067 45.1055 88.3849C45.1041 90.2722 45.1036 92.1594 45.1044 94.0467C45.1045 94.248 45.1046 94.4494 45.1046 94.6507C45.1047 94.7003 45.1047 94.7499 45.1047 94.801C45.105 95.5482 45.1047 96.2954 45.104 97.0426C45.1033 97.8926 45.1035 98.7427 45.1048 99.5927C45.1055 100.026 45.1058 100.46 45.1049 100.893C45.1042 101.29 45.1046 101.688 45.106 102.085C45.1062 102.228 45.1061 102.371 45.1055 102.515C45.0998 103.932 45.3157 105.197 46.296 106.295C46.3383 106.344 46.3807 106.394 46.4243 106.445C46.9203 106.988 47.5352 107.333 48.16 107.709C48.3002 107.794 48.4404 107.879 48.5805 107.964C48.8471 108.127 49.1139 108.289 49.381 108.45C49.8538 108.736 50.3249 109.025 50.7952 109.315C51.3789 109.676 51.9642 110.033 52.5508 110.388C53.1245 110.736 53.6964 111.086 54.2661 111.44C54.7289 111.727 55.1943 112.01 55.6601 112.292C56.2533 112.652 56.8452 113.013 57.4357 113.377C58.0819 113.775 58.7289 114.172 59.3782 114.565C59.6086 114.705 59.838 114.846 60.0667 114.988C60.9456 115.532 61.8259 115.97 62.8147 116.277C62.8618 116.292 62.909 116.307 62.9575 116.322C64.054 116.642 65.1378 116.671 66.2717 116.667C66.4376 116.668 66.6036 116.668 66.7696 116.668C67.1286 116.669 67.4877 116.669 67.8468 116.668C68.3807 116.668 68.9147 116.668 69.4486 116.669C70.4026 116.67 71.3565 116.67 72.3105 116.669C73.1452 116.669 73.98 116.668 74.8147 116.669C74.8702 116.669 74.9256 116.669 74.9828 116.669C75.208 116.669 75.4331 116.669 75.6583 116.669C77.7685 116.669 79.8788 116.669 81.989 116.668C83.8623 116.667 85.7356 116.667 87.6089 116.668C89.7156 116.669 91.8223 116.669 93.929 116.669C94.1537 116.669 94.3784 116.669 94.6031 116.669C94.6584 116.669 94.7137 116.669 94.7707 116.669C95.6049 116.668 96.4391 116.669 97.2732 116.669C98.2219 116.67 99.1706 116.67 100.119 116.668C100.65 116.668 101.18 116.668 101.711 116.669C102.107 116.669 102.504 116.669 102.901 116.668C103.061 116.667 103.221 116.668 103.381 116.668C105.277 116.673 106.798 116.326 108.257 115.036C108.318 114.983 108.318 114.983 108.381 114.928C109.383 113.998 110.013 112.573 110.085 111.218C110.137 109.412 109.64 107.97 108.403 106.638C107.281 105.479 105.866 104.963 104.275 104.875C103.687 104.834 103.146 104.673 102.729 104.238C102.311 103.632 102.222 103.175 102.28 102.438C102.423 101.852 102.724 101.471 103.233 101.158C103.565 100.992 103.855 100.943 104.224 100.941C104.269 100.941 104.314 100.94 104.36 100.94C104.458 100.939 104.555 100.938 104.652 100.938C104.807 100.938 104.961 100.936 105.116 100.935C105.445 100.932 105.775 100.93 106.104 100.928C106.484 100.925 106.864 100.923 107.244 100.919C107.395 100.918 107.546 100.917 107.697 100.917C109.339 100.905 110.795 100.508 112.049 99.4171C112.107 99.3732 112.107 99.3732 112.166 99.3285C113.233 98.501 113.862 97.0552 114.042 95.7534C114.17 94.0476 113.791 92.5316 112.708 91.1779C111.756 90.074 110.412 89.3287 108.964 89.1331C108.842 89.1262 108.72 89.1194 108.597 89.1145C107.896 89.0852 107.306 88.9934 106.779 88.4904C106.325 87.9857 106.234 87.5378 106.245 86.8639C106.291 86.3083 106.569 85.9082 106.972 85.5337C107.517 85.1177 108.144 85.1294 108.798 85.1282C108.924 85.127 109.051 85.1258 109.177 85.1246C109.487 85.1217 109.796 85.1201 110.105 85.1187C110.279 85.1179 110.453 85.1166 110.627 85.1147C110.79 85.1131 110.953 85.1122 111.115 85.1121C112.599 85.0953 113.966 84.5215 115.07 83.5412C115.114 83.5025 115.158 83.4638 115.204 83.4239C116.24 82.4523 116.897 81.0039 116.956 79.5878C116.983 77.8846 116.495 76.3982 115.327 75.1212C114.178 73.9391 112.655 73.3493 111.021 73.2974C110.459 73.2705 109.964 73.0751 109.575 72.6586C109.49 72.5426 109.49 72.5426 109.414 72.4216C109.388 72.3817 109.361 72.3418 109.334 72.3006C109.086 71.8507 109.078 71.3133 109.157 70.8147C109.323 70.2611 109.621 69.8799 110.121 69.5935C110.503 69.3943 110.885 69.3852 111.31 69.3669C112.125 69.3241 112.923 69.1171 113.656 68.7579C113.715 68.7296 113.775 68.7013 113.835 68.6721C114.297 68.4367 114.684 68.1373 115.07 67.7938C115.116 67.7536 115.162 67.7133 115.209 67.6718C116.225 66.7182 116.903 65.2733 116.956 63.8806C116.982 62.0932 116.46 60.5471 115.199 59.2452C113.88 57.9816 112.31 57.5519 110.524 57.5584C110.416 57.5583 110.309 57.5581 110.201 57.5579C109.908 57.5575 109.614 57.5579 109.32 57.5585C109.003 57.5589 108.686 57.5586 108.368 57.5583C107.819 57.558 107.27 57.5581 106.721 57.5584C105.852 57.559 104.983 57.5582 104.115 57.5573C103.817 57.557 103.52 57.5567 103.222 57.5565C103.111 57.5563 103.111 57.5564 102.997 57.5562C102.152 57.5555 101.307 57.555 100.462 57.5546C100.346 57.5545 100.346 57.5545 100.228 57.5545C98.9758 57.5539 97.7239 57.5542 96.472 57.5545C95.1855 57.5549 93.899 57.554 92.6125 57.5521C91.8196 57.551 91.0266 57.5509 90.2337 57.5521C89.6903 57.5528 89.147 57.5524 88.6037 57.5511C88.2904 57.5504 87.9771 57.5502 87.6638 57.5514C87.3766 57.5525 87.0895 57.5521 86.8024 57.5505C86.6989 57.5502 86.5953 57.5504 86.4918 57.5513C85.8681 57.556 85.1632 57.5483 84.6877 57.0814C84.6462 57.0389 84.6462 57.0389 84.6039 56.9956C84.5615 56.9956 84.519 56.9956 84.4753 56.9956C84.4569 56.9586 84.4384 56.9216 84.4194 56.8834C84.3733 56.7914 84.3269 56.6995 84.2803 56.6077C84.2585 56.5647 84.2367 56.5217 84.2142 56.4774C84.1923 56.4342 84.1703 56.3911 84.1477 56.3466C83.9376 55.9037 83.9442 55.3272 84.0889 54.864C84.2738 54.4776 84.5187 54.1408 84.7729 53.7975C87.0163 50.7102 88.5112 46.9545 89.7459 43.3693C89.7603 43.3277 89.7748 43.286 89.7896 43.2431C90.8864 40.0739 91.6147 36.7878 92.1046 33.4735C92.1231 33.3491 92.142 33.2247 92.1609 33.1003C92.3206 32.0409 92.4275 30.9786 92.5218 29.9117C92.5272 29.8508 92.5327 29.7899 92.5383 29.7271C92.6665 28.2796 92.7165 26.8329 92.7215 25.38C92.7223 25.2305 92.7236 25.081 92.7255 24.9315C92.768 21.5484 91.74 18.4164 89.4004 15.944C87.935 14.5376 86.0295 13.7519 83.997 13.7852C83.5471 13.8037 83.2351 13.9295 82.9167 14.2487Z" fill="#647E95"/>
<path d="M20.1123 56.9227C20.4845 56.9229 20.8568 56.9227 21.229 56.9226C21.8523 56.9225 22.4756 56.9226 23.099 56.923C23.8162 56.9233 24.5334 56.9232 25.2507 56.9228C25.8717 56.9225 26.4927 56.9225 27.1137 56.9227C27.4824 56.9228 27.8511 56.9228 28.2198 56.9226C28.5658 56.9224 28.9117 56.9225 29.2577 56.9229C29.3835 56.923 29.5094 56.923 29.6352 56.9228C30.2459 56.9222 30.8551 56.9283 31.4651 56.9587C31.5374 56.9622 31.5374 56.9622 31.6112 56.9658C33.1486 57.0519 34.4202 57.595 35.6263 58.5382C35.6636 58.5664 35.7009 58.5946 35.7393 58.6236C36.1567 58.9513 36.4748 59.3841 36.7993 59.7996C36.8403 59.8515 36.8403 59.8515 36.882 59.9044C37.0513 60.1242 37.1798 60.3443 37.2975 60.595C37.3246 60.6456 37.3518 60.6963 37.3798 60.7484C37.5574 61.0836 37.6783 61.4066 37.7682 61.7751C37.8093 61.9469 37.8093 61.9469 37.8742 62.1171C37.9473 62.3532 37.9837 62.5845 38.0109 62.8291C38.019 62.9006 38.019 62.9006 38.0273 62.9736C38.0833 63.5058 38.0914 64.0365 38.0951 64.5711C38.0963 64.6831 38.0975 64.7952 38.0988 64.9072C38.1021 65.2136 38.1046 65.5199 38.1069 65.8262C38.1084 66.0241 38.1102 66.222 38.112 66.4199C38.1443 69.9601 38.1425 73.5005 38.1417 77.0408C38.1416 77.7215 38.1416 78.4021 38.1416 79.0828C38.1417 79.1566 38.1417 79.1566 38.1417 79.2319C38.1417 79.4319 38.1417 79.6319 38.1417 79.8319C38.1419 81.6875 38.1417 83.5431 38.1414 85.3987C38.1411 87.0334 38.1411 88.6681 38.1414 90.3027C38.1418 92.1587 38.1419 94.0147 38.1417 95.8707C38.1417 96.0697 38.1417 96.2687 38.1416 96.4676C38.1416 96.5166 38.1416 96.5656 38.1416 96.616C38.1416 97.2958 38.1416 97.9756 38.1418 98.6554C38.1434 105.774 38.1434 105.774 38.1102 108.236C38.1085 108.366 38.107 108.496 38.1055 108.626C38.0772 110.947 38.0772 110.947 37.7916 111.822C37.7776 111.867 37.7636 111.912 37.7491 111.959C37.633 112.319 37.4855 112.65 37.2975 112.979C37.266 113.04 37.2345 113.1 37.2021 113.162C36.6695 114.145 35.6738 115.247 34.6622 115.743C34.4694 115.795 34.4694 115.795 34.3408 115.807C34.3408 115.85 34.3408 115.892 34.3408 115.936C34.1815 115.996 34.0222 116.056 33.8628 116.117C33.8186 116.133 33.7744 116.15 33.7288 116.167C33.6397 116.201 33.5503 116.234 33.4609 116.267C33.3688 116.301 33.277 116.335 33.1856 116.371C32.78 116.521 32.3883 116.562 31.9586 116.59C31.8854 116.595 31.8121 116.6 31.7367 116.605C30.9976 116.653 30.2603 116.661 29.52 116.659C29.3744 116.66 29.2287 116.66 29.0831 116.66C28.6932 116.661 28.3033 116.66 27.9134 116.66C27.5018 116.66 27.0902 116.66 26.6785 116.66C25.9437 116.661 25.2089 116.66 24.4741 116.659C23.8119 116.659 23.1497 116.659 22.4875 116.66C21.713 116.66 20.9386 116.661 20.1641 116.66C19.7562 116.66 19.3482 116.66 18.9403 116.66C16.0266 116.663 16.0266 116.663 14.9783 116.59C14.9134 116.585 14.8484 116.581 14.7815 116.576C14.4005 116.543 14.0653 116.458 13.7085 116.321C13.637 116.296 13.5655 116.27 13.4919 116.244C13.0575 116.079 12.6408 115.896 12.2302 115.679C12.2302 115.636 12.2302 115.594 12.2302 115.55C12.103 115.508 11.9757 115.465 11.8446 115.422C11.8446 115.379 11.8446 115.337 11.8446 115.293C11.7995 115.278 11.7544 115.264 11.708 115.249C11.3455 115.083 11.1013 114.816 10.8541 114.512C10.7469 114.384 10.7469 114.384 10.5952 114.241C10.3221 113.96 10.1262 113.63 9.91632 113.301C9.86201 113.216 9.86201 113.216 9.8066 113.13C9.43954 112.542 9.25129 111.976 9.12016 111.296C9.09929 111.122 9.09929 111.122 9.01647 111.051C8.93974 110.546 8.94306 110.033 8.94411 109.523C8.94401 109.443 8.94392 109.363 8.94382 109.28C8.94357 109.059 8.94372 108.837 8.94394 108.616C8.9441 108.374 8.94389 108.133 8.94373 107.892C8.9435 107.469 8.9435 107.046 8.94367 106.624C8.94391 105.995 8.94379 105.367 8.94359 104.738C8.94325 103.615 8.94328 102.493 8.94347 101.37C8.94363 100.388 8.94367 99.4055 8.94359 98.4231C8.94359 98.358 8.94358 98.2928 8.94358 98.2256C8.94356 97.9611 8.94354 97.6966 8.94352 97.4321C8.94332 94.9506 8.9435 92.4692 8.94384 89.9877C8.94415 87.7831 8.94412 85.5785 8.94382 83.3739C8.94347 80.897 8.94333 78.4201 8.94353 75.9432C8.94355 75.6791 8.94357 75.4151 8.94359 75.151C8.9436 75.086 8.9436 75.021 8.94361 74.954C8.94368 73.9722 8.9436 72.9905 8.94343 72.0087C8.94325 70.8923 8.9433 69.776 8.94365 68.6597C8.94383 68.0349 8.94385 67.4101 8.9436 66.7854C8.94346 66.368 8.94355 65.9507 8.94383 65.5334C8.94398 65.2956 8.94403 65.0578 8.9438 64.8201C8.94356 64.5637 8.94381 64.3074 8.94411 64.0511C8.94396 63.9776 8.94381 63.904 8.94365 63.8283C8.94634 62.6752 8.94634 62.6752 9.14502 62.1376C9.16601 62.0414 9.18603 61.945 9.20528 61.8484C9.25863 61.5991 9.34413 61.3985 9.4664 61.1735C9.49291 61.1072 9.51942 61.0409 9.54674 60.9726C9.85226 60.2618 10.2999 59.6828 10.8162 59.1167C10.8686 59.0589 10.9211 59.001 10.9751 58.9414C11.6993 58.1807 12.5928 57.6625 13.58 57.317C13.6569 57.2838 13.7338 57.2507 13.813 57.2166C14.481 56.968 15.2422 56.9722 15.946 56.956C16.0145 56.9542 16.0145 56.9542 16.0844 56.9524C17.4267 56.9176 18.7696 56.9219 20.1123 56.9227ZM14.0299 61.6877C13.9905 61.7184 13.951 61.7492 13.9104 61.7808C13.4993 62.1419 13.1728 62.7555 13.0658 63.2946C13.06 63.4052 13.0577 63.5159 13.0577 63.6267C13.0575 63.6944 13.0573 63.7621 13.0571 63.8318C13.0573 63.9062 13.0574 63.9807 13.0575 64.0574C13.0574 64.1367 13.0573 64.216 13.0572 64.2978C13.0569 64.5191 13.057 64.7405 13.0571 64.9618C13.0572 65.2022 13.057 65.4425 13.0568 65.6829C13.0564 66.1046 13.0563 66.5263 13.0564 66.9479C13.0565 67.575 13.0562 68.202 13.0559 68.8291C13.0553 70.0141 13.0551 71.199 13.0551 72.384C13.055 73.299 13.0549 74.214 13.0547 75.129C13.0546 75.3922 13.0546 75.6553 13.0545 75.9185C13.0545 75.9839 13.0545 76.0493 13.0545 76.1167C13.0541 77.9574 13.0538 79.7981 13.0539 81.6388C13.0539 81.7083 13.0539 81.7777 13.0539 81.8492C13.0539 82.2012 13.0539 82.5531 13.0539 82.9051C13.0539 82.975 13.0539 83.0449 13.0539 83.1169C13.0539 83.2583 13.0539 83.3996 13.0539 83.541C13.0539 85.7404 13.0534 87.9397 13.0526 90.1391C13.0516 92.6088 13.051 95.0784 13.0511 97.5481C13.0511 97.8114 13.0511 98.0746 13.0511 98.3379C13.0511 98.4027 13.0511 98.4675 13.0511 98.5343C13.0511 99.5784 13.0507 100.622 13.0501 101.667C13.0496 102.716 13.0495 103.765 13.05 104.814C13.0502 105.437 13.0501 106.061 13.0494 106.684C13.0491 107.101 13.0491 107.517 13.0496 107.933C13.0498 108.171 13.0499 108.408 13.0494 108.645C13.0488 108.901 13.0493 109.156 13.0498 109.412C13.0495 109.486 13.0492 109.559 13.0488 109.635C13.0527 110.498 13.2512 111.103 13.8491 111.742C14.5142 112.373 15.2304 112.55 16.1217 112.546C16.2206 112.546 16.2206 112.546 16.3214 112.547C16.5411 112.547 16.7607 112.547 16.9804 112.547C17.1384 112.547 17.2964 112.547 17.4544 112.548C17.8382 112.549 18.222 112.549 18.6059 112.549C18.918 112.549 19.2302 112.549 19.5423 112.549C19.5868 112.549 19.6313 112.549 19.6772 112.549C19.7676 112.549 19.858 112.549 19.9485 112.549C20.7956 112.55 21.6427 112.55 22.4898 112.549C23.2638 112.549 24.0379 112.55 24.812 112.551C25.6079 112.552 26.4038 112.553 27.1997 112.553C27.6461 112.552 28.0925 112.553 28.5389 112.554C28.9587 112.554 29.3785 112.554 29.7983 112.553C29.9522 112.553 30.106 112.553 30.2599 112.554C30.4703 112.555 30.6807 112.554 30.8911 112.553C30.9516 112.554 31.0121 112.554 31.0745 112.555C31.6181 112.55 32.1001 112.418 32.5813 112.164C32.6621 112.122 32.6621 112.122 32.7445 112.079C32.7834 112.058 32.8224 112.037 32.8625 112.015C32.8625 111.973 32.8625 111.93 32.8625 111.886C32.9182 111.882 32.9182 111.882 32.975 111.878C33.1948 111.793 33.2612 111.636 33.3767 111.437C33.3979 111.373 33.4191 111.309 33.441 111.244C33.5046 111.222 33.5682 111.201 33.6338 111.179C34.1237 110.415 34.0007 109.398 33.9965 108.534C33.9956 108.293 33.9967 108.052 33.9975 107.812C33.9987 107.391 33.9986 106.97 33.9978 106.549C33.9966 105.923 33.9972 105.297 33.9982 104.671C33.9999 103.553 33.9997 102.434 33.9988 101.316C33.998 100.338 33.9978 99.3591 33.9982 98.3805C33.9982 98.3155 33.9982 98.2506 33.9983 98.1837C33.9984 97.92 33.9985 97.6564 33.9986 97.3927C33.9995 94.9202 33.9987 92.4478 33.9969 89.9753C33.9954 87.7792 33.9955 85.5832 33.9971 83.3872C33.9988 80.9192 33.9995 78.4512 33.9985 75.9831C33.9984 75.72 33.9983 75.4568 33.9982 75.1937C33.9982 75.1289 33.9981 75.0641 33.9981 74.9973C33.9977 74.0194 33.9982 73.0415 33.999 72.0636C33.9999 70.9516 33.9997 69.8395 33.9979 68.7275C33.997 68.1053 33.9969 67.4831 33.9981 66.861C33.9988 66.4451 33.9984 66.0293 33.997 65.6135C33.9962 65.3767 33.996 65.14 33.9971 64.9032C34.0268 63.2573 34.0268 63.2573 33.2019 61.886C32.9581 61.6631 32.7207 61.4744 32.4246 61.3261C32.3738 61.3001 32.323 61.2741 32.2707 61.2473C31.814 61.0595 31.3961 61.0261 30.9083 61.0277C30.8426 61.0275 30.7769 61.0272 30.7091 61.0269C30.4897 61.0261 30.2703 61.0262 30.0509 61.0263C29.8933 61.0259 29.7356 61.0254 29.5779 61.025C29.1946 61.0239 28.8112 61.0235 28.4279 61.0235C28.116 61.0234 27.8041 61.0231 27.4923 61.0227C26.6068 61.0216 25.7213 61.021 24.8358 61.0211C24.7881 61.0211 24.7405 61.0211 24.6913 61.0211C24.6197 61.0211 24.6197 61.0211 24.5467 61.0211C23.7736 61.0212 23.0005 61.02 22.2273 61.0181C21.4322 61.0163 20.6371 61.0154 19.842 61.0155C19.3961 61.0156 18.9502 61.0152 18.5044 61.0138C18.0848 61.0125 17.6652 61.0126 17.2457 61.0135C17.0921 61.0136 16.9385 61.0133 16.785 61.0126C15.7614 61.0077 14.8629 61.0138 14.0299 61.6877Z" fill="#647E95"/>
<path d="M45.139 95.4963C45.2131 95.5561 45.2867 95.6165 45.36 95.6771C45.401 95.7107 45.442 95.7442 45.4843 95.7788C45.589 95.882 45.589 95.882 45.6532 96.0748C45.6957 96.0748 45.7381 96.0748 45.7818 96.0748C45.8768 96.1709 45.8768 96.1709 45.9864 96.3028C46.2094 96.565 46.4435 96.8112 46.6867 97.0548C46.7286 97.0969 46.7705 97.139 46.8137 97.1824C46.9017 97.2708 46.9899 97.3591 47.0781 97.4473C47.211 97.5804 47.3434 97.7139 47.4758 97.8475C47.8975 98.271 48.3186 98.6785 48.7902 99.0467C48.922 99.1526 49.0393 99.2631 49.1562 99.385C49.4106 99.6471 49.6933 99.8703 49.9777 100.099C50.1025 100.2 50.2261 100.302 50.3496 100.405C50.8736 100.84 51.4011 101.266 51.9522 101.667C51.9926 101.696 52.033 101.726 52.0747 101.757C53.8141 103.033 55.6082 104.207 57.4924 105.257C57.646 105.343 57.7978 105.431 57.9493 105.52C58.5794 105.892 59.2339 106.203 59.896 106.513C60.0933 106.606 60.2904 106.698 60.4874 106.791C60.6596 106.872 60.832 106.953 61.0043 107.034C61.088 107.074 61.1716 107.113 61.2552 107.152C61.7268 107.374 62.1999 107.585 62.6861 107.773C62.8018 107.819 62.9174 107.865 63.0331 107.911C66.3576 109.222 69.8237 110.182 73.3558 110.73C73.4321 110.742 73.5083 110.754 73.5869 110.766C74.1053 110.846 74.6247 110.912 75.1459 110.971C75.2871 110.987 75.4281 111.005 75.5691 111.022C77.4695 111.258 79.3705 111.268 81.2824 111.268C81.4831 111.268 81.6838 111.268 81.8845 111.268C86.9968 111.27 92.3266 111.016 97.6758 109.336C97.7212 109.321 97.7665 109.306 97.8132 109.291C99.3626 108.786 100.871 108.087 102.151 107.066C102.187 107.037 102.224 107.008 102.261 106.978C102.961 106.407 103.482 105.686 103.886 104.88C105.501 104.805 106.987 105.339 108.193 106.423C108.238 106.463 108.282 106.502 108.328 106.543C109.383 107.53 110.005 108.921 110.083 110.356C110.143 112.177 109.578 113.656 108.337 114.984C107.172 116.091 105.709 116.654 104.107 116.651C104.039 116.651 103.971 116.652 103.901 116.652C103.672 116.652 103.443 116.652 103.215 116.652C103.05 116.652 102.884 116.652 102.719 116.652C102.312 116.653 101.905 116.653 101.498 116.653C101.01 116.653 100.523 116.654 100.035 116.654C98.8563 116.655 97.6777 116.655 96.4991 116.656C95.9413 116.656 95.3835 116.656 94.8258 116.656C92.9158 116.657 91.0059 116.658 89.096 116.658C88.9761 116.658 88.8562 116.658 88.7363 116.658C88.6161 116.658 88.496 116.658 88.3758 116.658C88.1347 116.658 87.8937 116.658 87.6526 116.658C87.5928 116.658 87.533 116.658 87.4715 116.658C85.5341 116.659 83.5968 116.66 81.6595 116.661C79.6105 116.663 77.5615 116.663 75.5125 116.664C75.2874 116.664 75.0623 116.664 74.8372 116.664C74.7818 116.664 74.7264 116.664 74.6693 116.664C73.7786 116.664 72.888 116.664 71.9973 116.665C71.1014 116.666 70.2056 116.666 69.3097 116.666C68.778 116.666 68.2463 116.666 67.7146 116.667C67.3167 116.668 66.9189 116.667 66.521 116.667C66.3607 116.666 66.2003 116.667 66.04 116.667C64.9334 116.671 63.8777 116.611 62.8147 116.277C62.7615 116.261 62.7083 116.244 62.6534 116.227C61.5507 115.873 60.5839 115.319 59.6009 114.715C59.5342 114.674 59.4675 114.633 59.3988 114.591C59.0467 114.375 58.6951 114.159 58.3438 113.942C57.9604 113.705 57.5758 113.47 57.1906 113.236C56.5934 112.873 55.9981 112.508 55.4032 112.141C54.95 111.862 54.496 111.584 54.0411 111.308C53.4439 110.945 52.8486 110.579 52.2537 110.213C51.8006 109.934 51.3465 109.656 50.8917 109.38C50.2224 108.973 49.5549 108.564 48.8886 108.152C48.6261 107.99 48.3627 107.83 48.0982 107.671C47.5144 107.319 46.9613 106.985 46.4888 106.487C46.4215 106.42 46.4215 106.42 46.3527 106.351C45.6172 105.575 45.1303 104.506 45.1313 103.427C45.1312 103.356 45.1311 103.286 45.131 103.214C45.1313 103.137 45.1315 103.061 45.1317 102.983C45.1317 102.902 45.1317 102.821 45.1317 102.738C45.1317 102.517 45.1321 102.296 45.1325 102.074C45.1329 101.843 45.133 101.612 45.133 101.38C45.1332 100.943 45.1338 100.505 45.1344 100.067C45.1351 99.5687 45.1355 99.0702 45.1358 98.5717C45.1365 97.5466 45.1376 96.5214 45.139 95.4963Z" fill="#C9CBD7"/>
<path d="M13.3872 62.459C13.4864 62.7236 13.4347 62.9585 13.3872 63.2303C13.3236 63.3257 13.3236 63.3257 13.2586 63.4231C13.2162 63.4231 13.1738 63.4231 13.1301 63.4231C13.1301 76.7223 13.1301 90.0214 13.1301 103.724C15.9094 103.664 18.3461 103.532 20.9716 102.759C21.0288 102.743 21.086 102.727 21.145 102.71C21.2015 102.693 21.2581 102.677 21.3164 102.66C21.3925 102.638 21.3925 102.638 21.4701 102.615C21.66 102.551 21.831 102.462 22.0078 102.368C22.2822 102.234 22.5324 102.181 22.8356 102.181C22.8356 102.139 22.8356 102.096 22.8356 102.052C23.1492 101.909 23.457 101.807 23.791 101.721C23.9506 101.673 23.9506 101.673 24.0568 101.474C24.2255 101.411 24.394 101.382 24.571 101.345C24.571 101.303 24.571 101.261 24.571 101.217C24.6525 101.173 24.7342 101.131 24.8161 101.088C24.8616 101.064 24.9071 101.041 24.9539 101.016C25.0852 100.96 25.0852 100.96 25.2781 100.96C25.2781 100.917 25.2781 100.875 25.2781 100.831C25.3205 100.831 25.3629 100.831 25.4066 100.831C25.4066 100.789 25.4066 100.746 25.4066 100.703C25.4683 100.691 25.4683 100.691 25.5312 100.679C25.5749 100.665 25.6186 100.652 25.6637 100.638C25.6849 100.596 25.7061 100.553 25.728 100.51C25.7916 100.51 25.8553 100.51 25.9208 100.51C25.9341 100.471 25.9473 100.433 25.961 100.393C26.0827 100.2 26.2304 100.16 26.435 100.06C26.5528 99.9655 26.6641 99.8666 26.775 99.7643C26.8849 99.6742 26.8849 99.6742 27.011 99.6142C27.1724 99.5298 27.2724 99.4189 27.3991 99.2886C27.5013 99.2071 27.6045 99.1268 27.7085 99.0475C27.97 98.8419 28.1845 98.6275 28.3909 98.3671C28.4918 98.2602 28.4918 98.2602 28.6249 98.1974C28.7842 98.1129 28.8037 98.0371 28.8775 97.8745C28.9606 97.7601 29.0465 97.6477 29.1346 97.5371C29.1796 97.4797 29.2247 97.4224 29.2712 97.3633C29.3109 97.3199 29.3507 97.2765 29.3917 97.2318C29.4341 97.2318 29.4765 97.2318 29.5202 97.2318C29.5626 97.1469 29.6051 97.0621 29.6488 96.9747C29.6912 96.9747 29.7336 96.9747 29.7773 96.9747C29.8197 96.8474 29.8622 96.7201 29.9059 96.589C29.9483 96.589 29.9907 96.589 30.0344 96.589C30.0503 96.5307 30.0662 96.4724 30.0826 96.4123C30.1661 96.1953 30.2414 96.0915 30.4201 95.9463C30.4625 95.9463 30.5049 95.9463 30.5486 95.9463C30.5486 95.9038 30.5486 95.8614 30.5486 95.8177C30.591 95.8177 30.6335 95.8177 30.6772 95.8177C30.6772 95.7753 30.6772 95.7329 30.6772 95.6892C30.7196 95.6679 30.762 95.6467 30.8057 95.6249C30.9748 95.3585 31.067 95.1625 31.1271 94.8536C31.2235 94.7451 31.2235 94.7451 31.3199 94.6608C31.3411 94.6183 31.3623 94.5759 31.3842 94.5322C31.4266 94.5322 31.469 94.5322 31.5127 94.5322C31.5366 94.4547 31.5366 94.4547 31.561 94.3755C31.6242 94.1952 31.6893 94.018 31.7618 93.8413C31.7815 93.7925 31.8013 93.7438 31.8216 93.6936C31.9146 93.5416 31.9985 93.5166 32.1555 93.4395C32.2305 93.3272 32.2305 93.3272 32.28 93.1905C32.3012 93.1389 32.3225 93.0872 32.3443 93.0341C32.3668 92.977 32.3894 92.9199 32.4126 92.8611C32.6093 92.3791 32.817 91.9098 33.0553 91.447C33.0925 91.3714 33.1296 91.2959 33.1678 91.218C33.2482 91.0614 33.2482 91.0614 33.3124 90.9971C33.3204 90.9175 33.3284 90.838 33.3365 90.7561C33.3643 90.5114 33.4369 90.3706 33.5695 90.1615C33.8062 89.6189 33.7899 89.0884 33.788 88.5081C33.7883 88.3984 33.7888 88.2887 33.7893 88.179C33.7905 87.8783 33.7904 87.5777 33.7902 87.2771C33.7901 86.9526 33.7912 86.628 33.7921 86.3035C33.7936 85.7416 33.7944 85.1796 33.7947 84.6176C33.7951 83.8051 33.7966 82.9927 33.7983 82.1802C33.8011 80.8619 33.803 79.5436 33.8044 78.2254C33.8057 76.9449 33.8075 75.6644 33.8098 74.384C33.8099 74.305 33.8101 74.2261 33.8102 74.1448C33.8109 73.7487 33.8116 73.3526 33.8124 72.9566C33.8183 69.6716 33.823 66.3867 33.8266 63.1017C33.7842 63.1017 33.7418 63.1017 33.6981 63.1017C33.6981 62.9745 33.6981 62.8472 33.6981 62.7161C34.0003 63.0183 33.9705 63.4556 33.9727 63.8571C33.9724 63.9311 33.9722 64.005 33.9719 64.0812C33.9722 64.1608 33.9724 64.2403 33.9727 64.3223C33.9732 64.5434 33.9732 64.7645 33.9729 64.9856C33.9728 65.2261 33.9733 65.4665 33.9738 65.707C33.9746 66.1285 33.9749 66.55 33.9748 66.9716C33.9748 67.5984 33.9755 68.2252 33.9763 68.8521C33.9779 70.1021 33.9784 71.352 33.9788 72.602C33.9788 72.6667 33.9788 72.7315 33.9788 72.7982C33.9788 72.8631 33.9788 72.9279 33.9789 72.9948C33.9791 73.7135 33.9795 74.4322 33.9799 75.151C33.9812 77.3217 33.9822 79.4924 33.9824 81.6632C33.9824 81.7326 33.9824 81.802 33.9824 81.8736C33.9824 82.155 33.9825 82.4364 33.9825 82.7178C33.9825 82.9296 33.9825 83.1414 33.9825 83.3532C33.9826 83.4232 33.9826 83.4932 33.9826 83.5653C33.9828 85.7643 33.9842 87.9633 33.9865 90.1622C33.9891 92.6324 33.9906 95.1025 33.9907 97.5727C33.9907 97.8361 33.9907 98.0995 33.9907 98.363C33.9907 98.4278 33.9907 98.4927 33.9907 98.5595C33.9908 99.6032 33.9919 100.647 33.9934 101.691C33.9949 102.74 33.9951 103.789 33.9942 104.838C33.9937 105.461 33.994 106.084 33.9957 106.707C33.9967 107.124 33.9965 107.54 33.9954 107.957C33.9948 108.194 33.9947 108.431 33.9961 108.668C34.0062 110.599 34.0062 110.599 33.6338 111.179C33.5702 111.201 33.5066 111.222 33.441 111.244C33.3724 111.359 33.3724 111.359 33.3124 111.501C33.1547 111.809 33.1547 111.809 32.979 111.874C32.9214 111.88 32.9214 111.88 32.8625 111.886C32.8625 111.929 32.8625 111.971 32.8625 112.015C32.7087 112.089 32.5547 112.163 32.4005 112.236C32.3573 112.257 32.314 112.278 32.2694 112.299C32.2057 112.329 32.2057 112.329 32.1407 112.36C32.102 112.379 32.0633 112.397 32.0234 112.416C31.6678 112.555 31.3062 112.539 30.9307 112.538C30.8322 112.539 30.8322 112.539 30.7317 112.539C30.5114 112.539 30.2911 112.539 30.0708 112.54C29.913 112.54 29.7551 112.54 29.5973 112.541C29.1682 112.541 28.7391 112.542 28.31 112.542C28.0419 112.542 27.7737 112.543 27.5056 112.543C26.7627 112.544 26.0197 112.544 25.2768 112.544C25.2293 112.544 25.1817 112.545 25.1328 112.545C25.0851 112.545 25.0375 112.545 24.9884 112.545C24.8919 112.545 24.7954 112.545 24.6988 112.545C24.651 112.545 24.6031 112.545 24.5537 112.545C23.7785 112.545 23.0032 112.546 22.2279 112.548C21.4312 112.549 20.6345 112.55 19.8378 112.55C19.3907 112.55 18.9437 112.55 18.4967 112.552C18.076 112.553 17.6553 112.553 17.2347 112.552C17.0805 112.552 16.9264 112.552 16.7722 112.553C16.5613 112.554 16.3503 112.554 16.1393 112.553C16.0788 112.553 16.0183 112.554 15.956 112.554C15.1048 112.548 14.4126 112.261 13.7889 111.686C13.1519 111.018 13.0561 110.318 13.0572 109.437C13.057 109.358 13.0569 109.278 13.0567 109.196C13.0564 108.975 13.0563 108.754 13.0564 108.533C13.0564 108.293 13.056 108.053 13.0556 107.812C13.055 107.335 13.0548 106.859 13.0546 106.382C13.0545 105.811 13.0539 105.24 13.0533 104.669C13.052 103.289 13.0513 101.908 13.0508 100.528C13.0505 99.8755 13.0501 99.2227 13.0498 98.57C13.0487 96.3357 13.0477 94.1014 13.0472 91.8672C13.0472 91.7269 13.0472 91.5866 13.0471 91.4464C13.0471 91.3768 13.0471 91.3073 13.0471 91.2356C13.047 90.8832 13.0469 90.5308 13.0468 90.1783C13.0468 90.1084 13.0468 90.0385 13.0468 89.9664C13.0463 87.6982 13.0448 85.43 13.0427 83.1617C13.0405 80.764 13.0392 78.3663 13.039 75.9686C13.039 75.7055 13.039 75.4423 13.0389 75.1792C13.0389 75.1144 13.0389 75.0496 13.0389 74.9828C13.0387 73.9396 13.0377 72.8964 13.0364 71.8532C13.0351 70.8049 13.0348 69.7566 13.0354 68.7083C13.0357 68.0854 13.0353 67.4625 13.0339 66.8395C13.0331 66.4234 13.0331 66.0073 13.034 65.5912C13.0344 65.3541 13.0344 65.1171 13.0333 64.88C13.0322 64.6244 13.033 64.3689 13.034 64.1133C13.0333 64.0399 13.0327 63.9666 13.032 63.8911C13.0366 63.3644 13.1517 62.93 13.3872 62.459Z" fill="#2D56B3"/>
<path d="M65.4499 57.7669C65.4712 57.8093 65.4924 57.8518 65.5142 57.8955C65.4401 58.0406 65.4401 58.0406 65.3254 58.2249C65.1483 58.5193 64.9859 58.8158 64.8353 59.1247C64.5997 59.6046 64.3494 60.0761 64.0962 60.5468C64.059 60.616 64.0219 60.6852 63.9837 60.7565C63.7985 61.0995 63.6091 61.4391 63.4115 61.7751C63.2546 62.042 63.1096 62.3086 62.9754 62.5875C62.727 63.0944 62.4622 63.5923 62.196 64.09C62.1755 64.1285 62.1549 64.1671 62.1338 64.2068C61.9064 64.6332 61.6723 65.0529 61.421 65.4657C61.2989 65.6716 61.1919 65.8834 61.0873 66.0986C61.0439 66.1864 61.0006 66.2743 60.9572 66.3622C60.9243 66.4292 60.9243 66.4292 60.8907 66.4976C60.7726 66.7374 60.6527 66.9763 60.5329 67.2153C60.4894 67.3024 60.4459 67.3894 60.4023 67.4765C60.3712 67.5388 60.34 67.6011 60.3079 67.6653C60.2655 67.6653 60.2231 67.6653 60.1794 67.6653C60.1529 67.7499 60.1529 67.7499 60.1259 67.8363C60.0563 68.0354 59.9756 68.2127 59.8781 68.3994C59.8441 68.4648 59.8101 68.5301 59.775 68.5975C59.7388 68.6664 59.7025 68.7352 59.6652 68.8062C59.6279 68.8774 59.5907 68.9486 59.5523 69.022C59.3041 69.4947 59.0504 69.964 58.7869 70.4284C58.657 70.6583 58.5338 70.8899 58.4166 71.1266C58.2487 71.4657 58.0683 71.797 57.8856 72.1284C57.6333 72.588 57.3849 73.0494 57.1424 73.5143C56.9591 73.8656 56.7709 74.2121 56.572 74.5548C56.3754 74.8943 56.1974 75.2388 56.0251 75.5909C55.7811 76.0851 55.515 76.5674 55.2498 77.0504C55.1975 77.146 55.1975 77.146 55.1441 77.2435C55.1127 77.3006 55.0813 77.3576 55.049 77.4164C54.9663 77.5676 54.9663 77.5676 54.9088 77.7564C54.8664 77.7564 54.824 77.7564 54.7803 77.7564C54.7564 77.834 54.7564 77.834 54.7321 77.9131C54.635 78.1899 54.5166 78.4541 54.3946 78.7206C54.3522 78.7206 54.3098 78.7206 54.2661 78.7206C54.2515 78.7696 54.2369 78.8187 54.2219 78.8692C54.1066 79.1932 53.9614 79.5017 53.8162 79.8132C53.7737 79.8132 53.7313 79.8132 53.6876 79.8132C53.6727 79.8654 53.6578 79.9176 53.6424 79.9714C53.5401 80.2506 53.4014 80.4959 53.2538 80.7533C52.9987 81.2051 52.7583 81.6608 52.5307 82.1271C52.448 82.2934 52.3648 82.4593 52.2816 82.6253C52.2429 82.7026 52.2043 82.7799 52.1656 82.8573C52.1236 82.9413 52.1236 82.9413 52.0807 83.027C52.0383 83.027 51.9959 83.027 51.9522 83.027C51.9459 83.0608 51.9396 83.0945 51.9331 83.1293C51.8729 83.3357 51.778 83.5134 51.6793 83.7044C51.6583 83.7451 51.6373 83.7859 51.6156 83.8279C51.5474 83.9601 51.4786 84.0921 51.4099 84.2241C51.3626 84.3152 51.3154 84.4063 51.2681 84.4974C50.9292 85.1494 50.5804 85.795 50.2168 86.4336C50.1344 86.5786 50.0522 86.7237 49.9701 86.869C49.9192 86.9589 49.8681 87.0487 49.8168 87.1384C49.7199 87.3093 49.6363 87.4678 49.574 87.6548C49.5316 87.6548 49.4892 87.6548 49.4455 87.6548C49.4243 87.7609 49.403 87.8669 49.3812 87.9762C49.36 87.9762 49.3388 87.9762 49.3169 87.9762C49.311 85.6415 49.3065 83.3068 49.3038 80.972C49.3035 80.6961 49.3031 80.4202 49.3028 80.1442C49.3027 80.0893 49.3027 80.0344 49.3026 79.9778C49.3015 79.0895 49.2994 78.2013 49.2971 77.3131C49.2947 76.401 49.2932 75.4889 49.2927 74.5767C49.2924 74.0144 49.2913 73.4521 49.2892 72.8897C49.2878 72.5035 49.2874 72.1174 49.2877 71.7312C49.2879 71.5087 49.2877 71.2863 49.2863 71.0639C49.2787 69.6405 49.3749 68.5729 50.387 67.493C51.026 66.8626 51.7382 66.5732 52.5742 66.2892C52.9105 66.1737 53.2248 66.0454 53.5382 65.8764C53.7151 65.7875 53.8955 65.7208 54.0813 65.6527C54.441 65.5176 54.7821 65.3571 55.1236 65.1822C55.3882 65.0469 55.6544 64.916 55.9232 64.789C56.0203 64.7431 56.0203 64.7431 56.1194 64.6962C56.2462 64.6365 56.373 64.5771 56.5 64.5179C56.8556 64.35 57.193 64.1676 57.5258 63.9578C57.678 63.87 57.8308 63.8089 57.994 63.7445C58.0866 63.6944 58.178 63.6422 58.2682 63.5881C58.3196 63.5573 58.3711 63.5265 58.424 63.4947C58.4783 63.4618 58.5326 63.4289 58.5886 63.395C58.6448 63.3612 58.701 63.3274 58.7589 63.2925C59.1914 63.0306 59.617 62.7591 60.0376 62.4785C60.3588 62.2662 60.3588 62.2662 60.5008 62.2662C60.5008 62.2238 60.5008 62.1813 60.5008 62.1376C60.6025 62.0588 60.6025 62.0588 60.7458 61.9689C61.2898 61.6176 61.8031 61.232 62.3007 60.818C62.429 60.7236 62.429 60.7236 62.5576 60.7236C62.5576 60.6812 62.5576 60.6387 62.5576 60.595C62.6655 60.4988 62.7774 60.4072 62.891 60.3178C63.1389 60.1223 63.3644 59.92 63.586 59.6952C63.6683 59.6234 63.7512 59.5523 63.835 59.4823C64.0566 59.2906 64.2462 59.0853 64.4354 58.8621C64.5553 58.7251 64.6813 58.5976 64.8112 58.4699C65.0386 58.2461 65.2457 58.012 65.4499 57.7669Z" fill="#FEFEFE"/>
<path d="M92.2526 21.1944C92.3736 21.4238 92.4275 21.634 92.4776 21.8894C92.4928 21.9654 92.5081 22.0414 92.5238 22.1197C92.5409 22.2183 92.5576 22.3169 92.574 22.4157C92.5853 22.4779 92.5965 22.5402 92.6081 22.6044C92.7381 23.4206 92.7223 24.2387 92.7186 25.063C92.7184 25.1415 92.7182 25.22 92.718 25.3008C92.7143 26.5647 92.6857 27.8223 92.5856 29.0823C92.5734 29.2367 92.5617 29.3911 92.5499 29.5455C92.1307 34.9843 90.9679 40.4113 84.4343 54.2974C84.0292 54.8634 83.9586 55.3477 84.0254 56.0315C84.1159 56.353 84.2675 56.6072 84.4754 56.8671C84.4754 56.9095 84.4754 56.9519 84.4754 56.9956C84.5108 57.0134 84.5463 57.0311 84.5828 57.0494C84.979 57.2474 84.979 57.2474 85.3752 57.4455C85.1367 57.6045 85.0197 57.5891 84.7351 57.5869C84.6898 57.5867 84.6445 57.5865 84.5979 57.5863C84.4479 57.5854 84.2979 57.5836 84.148 57.5816C84.0433 57.5806 83.9386 57.5796 83.834 57.5786C83.6141 57.5764 83.3943 57.5736 83.1745 57.5705C82.8946 57.5666 82.6146 57.5644 82.3346 57.5627C82.1181 57.5612 81.9016 57.5585 81.6851 57.5554C81.582 57.5542 81.4789 57.5533 81.3758 57.5528C80.4574 57.548 79.7702 57.3935 79.0845 56.7551C78.6462 56.3007 78.3761 55.6782 78.3657 55.045C78.3934 54.4726 78.4946 54.0405 78.7549 53.5248C78.7973 53.5248 78.8397 53.5248 78.8834 53.5248C78.908 53.4564 78.908 53.4564 78.9332 53.3867C79.1647 52.8483 79.5665 52.3735 79.9121 51.9033C80.0891 51.6574 80.2555 51.405 80.4223 51.1521C80.5572 50.9499 80.6961 50.751 80.8358 50.5521C81.0795 50.2018 81.3086 49.8446 81.5315 49.4808C81.6892 49.2243 81.8532 48.9731 82.0211 48.7232C82.2895 48.3224 82.5444 47.9143 82.7962 47.503C82.8185 47.4667 82.8407 47.4304 82.8637 47.393C83.1833 46.8723 83.4974 46.3488 83.805 45.8211C83.9853 45.5122 84.1703 45.2062 84.3548 44.8999C84.7693 44.2105 85.1753 43.5224 85.5296 42.7996C85.6429 42.5771 85.7653 42.3607 85.8894 42.1441C86.5673 40.9541 87.1754 39.7255 87.7534 38.4844C87.7915 38.4033 87.8297 38.3222 87.8679 38.2411C87.9588 38.0474 88.0491 37.8534 88.1389 37.6592C88.2139 37.4974 88.2898 37.336 88.3655 37.1746C89.9396 33.8021 91.1132 30.2009 91.7384 26.5293C91.7478 26.4751 91.7572 26.421 91.7669 26.3652C92.0592 24.6569 92.1606 22.9229 92.2526 21.1944Z" fill="#C9CBD7"/>
<path d="M17.8367 65.7858C17.9156 65.7857 17.9946 65.7855 18.0759 65.7853C18.1626 65.7857 18.2492 65.7862 18.3358 65.7867C18.4277 65.7867 18.5196 65.7867 18.6114 65.7866C18.8602 65.7866 19.1089 65.7874 19.3576 65.7883C19.6177 65.7891 19.8779 65.7891 20.1381 65.7893C20.6305 65.7897 21.1228 65.7907 21.6152 65.792C22.1759 65.7935 22.7365 65.7942 23.2972 65.7948C24.4503 65.7962 25.6033 65.7984 26.7564 65.8013C26.6949 65.8731 26.6335 65.9449 26.572 66.0167C26.5377 66.0567 26.5035 66.0967 26.4683 66.1379C26.1833 66.4691 25.8886 66.7918 25.5896 67.1104C25.2244 67.4996 24.8675 67.8902 24.5339 68.3073C24.4155 68.4545 24.2958 68.5999 24.1743 68.7446C23.6134 69.4145 23.088 70.1051 22.5785 70.8147C22.527 70.8864 22.527 70.8864 22.4745 70.9595C19.6234 74.9387 17.6064 79.2526 16.0224 83.8626C16.0012 83.8626 15.98 83.8626 15.9582 83.8626C15.9523 81.7691 15.9478 79.6757 15.945 77.5822C15.9447 77.3349 15.9444 77.0876 15.9441 76.8403C15.944 76.7911 15.9439 76.7419 15.9438 76.6911C15.9427 75.8946 15.9407 75.098 15.9383 74.3015C15.9359 73.4838 15.9345 72.6661 15.934 71.8484C15.9336 71.3441 15.9325 70.8398 15.9304 70.3355C15.9289 69.9484 15.9287 69.5613 15.9291 69.1742C15.929 69.0157 15.9285 68.8572 15.9275 68.6986C15.9262 68.4818 15.9266 68.2651 15.9273 68.0483C15.9265 67.9859 15.9258 67.9235 15.925 67.8592C15.9304 67.2396 16.1244 66.7455 16.55 66.2954C16.9305 65.9372 17.3174 65.7849 17.8367 65.7858Z" fill="#808EFA"/>
<path d="M109.157 89.1974C110.266 89.3463 111.204 89.8291 112.049 90.5472C112.112 90.597 112.175 90.6468 112.239 90.6981C113.215 91.5133 113.892 92.8949 114.042 94.1466C114.139 95.9149 113.842 97.3931 112.692 98.7744C112.657 98.8202 112.621 98.866 112.585 98.9132C111.662 100.059 110.192 100.678 108.769 100.871C108.301 100.916 107.834 100.909 107.365 100.903C107.264 100.903 107.163 100.902 107.062 100.902C106.817 100.9 106.573 100.898 106.329 100.895C106.417 100.735 106.417 100.735 106.522 100.574C106.564 100.574 106.607 100.574 106.65 100.574C106.674 100.522 106.674 100.522 106.698 100.47C106.798 100.28 106.91 100.105 107.036 99.9313C107.078 99.9313 107.121 99.9313 107.164 99.9313C107.181 99.8847 107.197 99.838 107.214 99.79C107.297 99.6005 107.395 99.4634 107.522 99.3006C107.856 98.8498 108.121 98.3682 108.386 97.8745C108.426 97.8017 108.465 97.7289 108.506 97.6538C109.291 96.163 109.682 94.4989 109.683 92.8209C109.684 92.6977 109.684 92.6977 109.686 92.5721C109.687 91.8086 109.589 91.0764 109.414 90.3343C109.393 90.2408 109.371 90.1473 109.35 90.0538C109.339 90.0088 109.329 89.9639 109.318 89.9176C109.263 89.6778 109.21 89.4376 109.157 89.1974Z" fill="#C9CBD7"/>
<path d="M112.756 73.5786C114.388 74.0873 115.591 75.1439 116.386 76.6497C117.074 78.0772 117.138 79.7281 116.635 81.2229C116.104 82.7018 114.952 83.8762 113.56 84.5686C112.882 84.8858 112.125 85.0936 111.375 85.0901C111.298 85.0899 111.221 85.0897 111.141 85.0894C111.062 85.0889 110.982 85.0884 110.9 85.0878C110.819 85.0875 110.738 85.0872 110.655 85.0869C110.455 85.0862 110.256 85.0851 110.057 85.0838C110.162 84.864 110.288 84.6859 110.438 84.4933C110.684 84.1722 110.91 83.8408 111.129 83.501C111.158 83.4573 111.186 83.4137 111.215 83.3687C111.301 83.2339 111.386 83.0985 111.471 82.9627C111.501 82.914 111.532 82.8652 111.563 82.815C112.934 80.5842 113.863 77.8526 113.27 75.2206C113.178 74.8919 113.075 74.5689 112.961 74.2472C112.884 74.0257 112.819 73.8045 112.756 73.5786Z" fill="#C9CBD7"/>
<path d="M113.271 58.024C114.647 58.4682 115.707 59.6086 116.372 60.8559C117.014 62.1376 117.159 63.7318 116.758 65.1078C116.224 66.7175 115.18 67.9725 113.675 68.7597C113.317 68.9392 112.959 69.0693 112.563 69.1436C112.646 68.8084 112.77 68.5388 112.949 68.2437C113.128 67.9451 113.273 67.6517 113.391 67.3238C113.415 67.2573 113.415 67.2573 113.44 67.1895C113.491 67.0483 113.542 66.9069 113.592 66.7654C113.608 66.72 113.625 66.6747 113.642 66.6279C114.553 64.1007 114.766 61.4226 113.656 58.9239C113.557 58.7301 113.453 58.5412 113.341 58.3542C113.271 58.2168 113.271 58.2168 113.271 58.024Z" fill="#C9CBD7"/>
<path d="M33.9552 63.2946C33.9976 63.3158 34.04 63.337 34.0837 63.3588C34.0932 67.8582 34.1024 72.3576 34.1103 76.857C34.1104 76.9235 34.1105 76.9901 34.1106 77.0587C34.1132 78.505 34.1157 79.9513 34.1182 81.3975C34.1194 82.1068 34.1206 82.816 34.1218 83.5252C34.1219 83.5958 34.122 83.6664 34.1222 83.7391C34.1261 86.0282 34.1307 88.3172 34.1356 90.6063C34.1406 92.958 34.145 95.3096 34.1486 97.6612C34.1491 97.9931 34.1496 98.325 34.1501 98.6569C34.1502 98.7222 34.1503 98.7875 34.1504 98.8548C34.1521 99.9078 34.1544 100.961 34.157 102.014C34.1596 103.072 34.1614 104.129 34.1626 105.187C34.1633 105.816 34.1645 106.445 34.1666 107.074C34.1679 107.494 34.1685 107.913 34.1685 108.333C34.1685 108.572 34.1689 108.812 34.17 109.051C34.1713 109.309 34.1711 109.566 34.1707 109.824C34.1713 109.899 34.172 109.974 34.1726 110.051C34.1722 110.119 34.1719 110.188 34.1716 110.258C34.1717 110.317 34.1718 110.376 34.1719 110.437C34.1423 110.641 34.0812 110.76 33.9552 110.922C33.8146 110.975 33.8146 110.975 33.6981 110.987C33.7117 110.945 33.7254 110.904 33.7394 110.861C33.8838 110.385 33.9184 109.954 33.9156 109.459C33.916 109.379 33.9163 109.299 33.9166 109.216C33.9175 108.994 33.9172 108.773 33.9167 108.552C33.9164 108.31 33.9172 108.069 33.9178 107.828C33.9188 107.405 33.9191 106.982 33.9189 106.56C33.9186 105.931 33.9194 105.303 33.9204 104.675C33.9221 103.618 33.9229 102.561 33.9232 101.503C33.9235 100.457 33.9242 99.4103 33.9254 98.3637C33.9255 98.2987 33.9256 98.2336 33.9256 98.1665C33.926 97.8359 33.9264 97.5054 33.9268 97.1748C33.9296 94.8339 33.9315 92.493 33.9329 90.1521C33.9343 87.878 33.936 85.604 33.9383 83.3299C33.9384 83.2598 33.9385 83.1897 33.9385 83.1175C33.9392 82.4134 33.94 81.7094 33.9407 81.0054C33.9422 79.5712 33.9436 78.137 33.945 76.7029C33.945 76.6369 33.9451 76.571 33.9452 76.503C33.9494 72.1002 33.9524 67.6974 33.9552 63.2946Z" fill="#0E153C"/>
<path d="M13.3872 62.459C13.4864 62.7236 13.4347 62.9585 13.3872 63.2303C13.3236 63.3257 13.3236 63.3257 13.2586 63.4231C13.2162 63.4231 13.1738 63.4231 13.1301 63.4231C13.1301 76.7222 13.1301 90.0214 13.1301 103.724C13.1089 103.724 13.0877 103.724 13.0658 103.724C13.0614 99.8791 13.0573 96.0347 13.0549 92.1903C13.0549 92.1335 13.0549 92.0766 13.0548 92.0179C13.0541 90.7814 13.0533 89.5449 13.0527 88.3084C13.0524 87.702 13.052 87.0956 13.0517 86.4893C13.0517 86.4289 13.0516 86.3686 13.0516 86.3064C13.0505 84.3505 13.0486 82.3945 13.0462 80.4386C13.0438 78.4286 13.0422 76.4187 13.0417 74.4087C13.0416 74.1249 13.0415 73.841 13.0414 73.5571C13.0414 73.5012 13.0414 73.4454 13.0414 73.3878C13.0411 72.4883 13.0399 71.5889 13.0384 70.6895C13.0368 69.7853 13.0363 68.8811 13.0366 67.9768C13.0368 67.4396 13.0363 66.9024 13.0348 66.3652C13.0337 65.964 13.0339 65.5628 13.0347 65.1617C13.0348 64.9994 13.0345 64.8371 13.0337 64.6748C13.0327 64.4541 13.0332 64.2336 13.0342 64.013C13.0335 63.9499 13.0328 63.8869 13.0321 63.822C13.037 63.3257 13.1655 62.9023 13.3872 62.459Z" fill="#212999"/>
<path d="M25.1495 100.767C25.2343 100.788 25.3192 100.809 25.4066 100.831C25.3642 100.831 25.3218 100.831 25.278 100.831C25.278 100.874 25.278 100.916 25.278 100.96C25.1844 101.003 25.0907 101.046 24.9968 101.088C24.9446 101.112 24.8924 101.136 24.8387 101.161C24.6996 101.217 24.6996 101.217 24.571 101.217C24.571 101.259 24.571 101.302 24.571 101.345C24.3635 101.484 24.2957 101.487 24.0568 101.474C24.0144 101.559 23.972 101.644 23.9283 101.731C23.8434 101.71 23.7586 101.689 23.6712 101.667C23.9222 101.439 24.1196 101.357 24.4425 101.281C24.4425 101.239 24.4425 101.196 24.4425 101.153C24.5361 101.109 24.6298 101.067 24.7237 101.024C24.7759 101 24.8281 100.976 24.8819 100.952C25.0209 100.895 25.0209 100.895 25.1495 100.895C25.1495 100.853 25.1495 100.811 25.1495 100.767Z" fill="#1724A4"/>
<path d="M36.9761 60.3379C37.1524 60.5436 37.2737 60.7239 37.3618 60.9807C37.1904 60.9807 37.019 60.9807 36.8476 60.9807C36.7836 60.789 36.7628 60.666 36.7833 60.4665C36.8469 60.424 36.9105 60.3816 36.9761 60.3379Z" fill="#343434"/>
<path d="M33.3767 111.372C33.3979 111.436 33.4191 111.5 33.441 111.565C32.9133 112.219 32.9133 112.219 32.4769 112.336C32.3353 112.308 32.3353 112.308 32.2198 112.272C32.3026 112.229 32.3857 112.186 32.4688 112.144C32.5151 112.12 32.5613 112.096 32.6089 112.071C32.734 112.015 32.734 112.015 32.8625 112.015C32.8625 111.973 32.8625 111.93 32.8625 111.886C32.9023 111.882 32.942 111.879 32.983 111.874C33.1363 111.834 33.1363 111.834 33.1919 111.666C33.2105 111.611 33.229 111.557 33.2482 111.501C33.2906 111.458 33.333 111.416 33.3767 111.372Z" fill="#121742"/>
<path d="M37.3618 112.529C37.383 112.593 37.4042 112.656 37.426 112.722C37.3239 112.926 37.208 113.083 37.0404 113.236C37.0046 113.272 36.9688 113.308 36.9319 113.345C36.9041 113.373 36.8762 113.4 36.8476 113.429C36.8476 113.365 36.8476 113.302 36.8476 113.236C36.833 113.194 36.8184 113.151 36.8034 113.108C36.7833 112.979 36.7833 112.979 36.8596 112.867C36.9761 112.786 36.9761 112.786 37.2332 112.786C37.2756 112.701 37.318 112.617 37.3618 112.529Z" fill="#55565E"/>
<path d="M31.9627 93.5038C32.0051 93.5038 32.0475 93.5038 32.0912 93.5038C32.0634 93.5535 32.0634 93.5535 32.035 93.6042C31.9542 93.767 31.9542 93.767 31.9064 93.9778C31.8303 94.2231 31.7346 94.3946 31.577 94.5965C31.5346 94.5965 31.4922 94.5965 31.4485 94.5965C31.3848 94.7556 31.3848 94.7556 31.3199 94.9179C31.2775 94.9179 31.2351 94.9179 31.1914 94.9179C31.1701 94.9603 31.1489 95.0027 31.1271 95.0464C31.1271 94.8536 31.1271 94.8536 31.2195 94.7532C31.2526 94.7227 31.2858 94.6922 31.3199 94.6608C31.3411 94.6183 31.3623 94.5759 31.3842 94.5322C31.4266 94.5322 31.469 94.5322 31.5127 94.5322C31.5286 94.4805 31.5445 94.4288 31.5609 94.3755C31.815 93.6515 31.815 93.6515 31.9627 93.5038Z" fill="#1824A0"/>
<path d="M30.4201 95.9463C30.4625 95.9675 30.5049 95.9887 30.5486 96.0105C30.3139 96.3589 30.0891 96.6912 29.7773 96.9747C29.8197 96.8474 29.8621 96.7201 29.9059 96.589C29.9483 96.589 29.9907 96.589 30.0344 96.589C30.0503 96.5307 30.0662 96.4723 30.0826 96.4123C30.1655 96.1967 30.2478 96.0956 30.4201 95.9463ZM29.6488 96.9747C29.6912 96.9959 29.7336 97.0171 29.7773 97.0389C29.6925 97.1026 29.6076 97.1662 29.5202 97.2318C29.5626 97.1469 29.605 97.0621 29.6488 96.9747Z" fill="#1724A0"/>
<path d="M120.598 81.7415C120.563 82.0353 120.507 82.299 120.405 82.5771C120.363 82.5558 120.32 82.5346 120.276 82.5128C120.276 82.3855 120.276 82.2583 120.276 82.1271C120.319 82.1271 120.361 82.1271 120.405 82.1271C120.363 82.1059 120.32 82.0847 120.276 82.0629C120.301 81.9383 120.301 81.9383 120.341 81.8058C120.469 81.7415 120.469 81.7415 120.598 81.7415Z" fill="#1F1F28"/>
<path d="M116.291 55.1959C116.582 55.2301 116.764 55.348 116.998 55.5173C116.806 55.6458 116.806 55.6458 116.613 55.6458C116.613 55.5822 116.613 55.5186 116.613 55.453C116.507 55.4318 116.401 55.4106 116.291 55.3887C116.291 55.3251 116.291 55.2615 116.291 55.1959Z" fill="#1F2029"/>
<path d="M88.9746 44.7834C89.0594 44.8046 89.1442 44.8258 89.2317 44.8476C89.168 45.0173 89.1044 45.187 89.0388 45.3618C88.9752 45.3406 88.9116 45.3194 88.846 45.2976C88.8018 45.1489 88.8018 45.1489 88.7817 44.9762C88.8581 44.8557 88.8581 44.8557 88.9746 44.7834Z" fill="#C3C5D2"/>
<path d="M106.393 87.5262C106.457 87.5475 106.52 87.5687 106.586 87.5905C106.586 87.7178 106.586 87.845 106.586 87.9762C106.543 87.9762 106.501 87.9762 106.457 87.9762C106.436 88.0186 106.415 88.061 106.393 88.1047C106.312 87.9179 106.265 87.7965 106.265 87.5905C106.307 87.5693 106.349 87.5481 106.393 87.5262Z" fill="#1D1F2B"/>
<path d="M29.3917 97.2318C29.4341 97.253 29.4765 97.2742 29.5202 97.296C29.1249 97.8389 29.1249 97.8389 28.8775 98.0673C28.835 98.0461 28.7926 98.0249 28.7489 98.0031C28.7899 97.9582 28.8309 97.9133 28.8732 97.867C28.9263 97.8085 28.9794 97.75 29.0341 97.6897C29.0871 97.6316 29.14 97.5734 29.1946 97.5135C29.328 97.3724 29.328 97.3724 29.3917 97.2318Z" fill="#16229D"/>
<path d="M13.4515 57.4455C13.4939 57.5092 13.5363 57.5728 13.58 57.6384C13.5164 57.6596 13.4527 57.6808 13.3872 57.7026C13.3872 57.7451 13.3872 57.7875 13.3872 57.8312C13.1963 57.7994 13.1963 57.7994 13.0015 57.7669C13.0015 57.7245 13.0015 57.6821 13.0015 57.6384C13.15 57.5747 13.2985 57.5111 13.4515 57.4455Z" fill="#1C1E29"/>
<path d="M31.0628 95.0464C31.084 95.0888 31.1052 95.1313 31.1271 95.175C31.0676 95.3 31.0676 95.3 30.9785 95.4401C30.9351 95.5099 30.9351 95.5099 30.8908 95.5812C30.8627 95.6168 30.8347 95.6525 30.8057 95.6892C30.7633 95.6892 30.7209 95.6892 30.6772 95.6892C30.6772 95.7316 30.6772 95.774 30.6772 95.8177C30.6347 95.8177 30.5923 95.8177 30.5486 95.8177C30.6392 95.6224 30.7471 95.4582 30.878 95.2874C30.9127 95.242 30.9473 95.1966 30.983 95.1499C31.0093 95.1157 31.0357 95.0816 31.0628 95.0464Z" fill="#1925A5"/>
<path d="M54.2661 115.743C54.2661 115.785 54.2661 115.828 54.2661 115.872C54.2025 115.872 54.1388 115.872 54.0733 115.872C54.0733 115.914 54.0733 115.956 54.0733 116C53.9166 115.976 53.9166 115.976 53.7519 115.936C53.7307 115.893 53.7095 115.851 53.6876 115.807C53.8777 115.712 54.0567 115.739 54.2661 115.743Z" fill="#6A6B72"/>
<path d="M25.9208 100.253C25.9632 100.274 26.0057 100.295 26.0494 100.317C25.9857 100.412 25.9857 100.412 25.9208 100.51C25.8572 100.51 25.7936 100.51 25.728 100.51C25.7068 100.573 25.6856 100.637 25.6637 100.703C25.5789 100.681 25.494 100.66 25.4066 100.638C25.4915 100.596 25.5763 100.553 25.6637 100.51C25.6637 100.467 25.6637 100.425 25.6637 100.381C25.7842 100.313 25.7842 100.313 25.9208 100.253Z" fill="#1B25A6"/>
<path d="M103.244 104.366C103.416 104.386 103.416 104.386 103.565 104.431C103.523 104.537 103.48 104.643 103.436 104.752C103.309 104.688 103.182 104.625 103.051 104.559C103.127 104.459 103.127 104.459 103.244 104.366Z" fill="#20202C"/>
<path d="M116.549 81.2273C116.708 81.2909 116.708 81.2909 116.87 81.3558C116.849 81.4195 116.827 81.4831 116.806 81.5487C116.681 81.5888 116.681 81.5888 116.549 81.6129C116.485 81.6448 116.485 81.6448 116.42 81.6772C116.462 81.5287 116.505 81.3803 116.549 81.2273Z" fill="#1E202D"/>
<path d="M116.613 64.8372C116.655 64.8796 116.698 64.922 116.741 64.9657C116.725 65.1626 116.725 65.1626 116.677 65.3514C116.613 65.3832 116.613 65.3832 116.549 65.4156C116.508 65.1987 116.508 65.1987 116.484 64.9657C116.527 64.9233 116.569 64.8809 116.613 64.8372Z" fill="#C2C4D1"/>
<path d="M47.0673 60.2736C47.0248 60.3585 46.9824 60.4433 46.9387 60.5307C46.8115 60.4883 46.6842 60.4459 46.5531 60.4022C46.7369 60.2184 46.819 60.1909 47.0673 60.2736Z" fill="#1E1F2A"/>
<path d="M58.0583 118.25C58.1643 118.271 58.2704 118.292 58.3797 118.314C58.3797 118.42 58.3797 118.526 58.3797 118.635C58.2524 118.572 58.1251 118.508 57.994 118.443C58.0152 118.379 58.0364 118.315 58.0583 118.25Z" fill="#1F212A"/>
<path d="M13.1301 110.472C13.1725 110.472 13.2149 110.472 13.2586 110.472C13.2586 110.536 13.2586 110.6 13.2586 110.665C13.301 110.665 13.3435 110.665 13.3872 110.665C13.4296 110.856 13.472 111.047 13.5157 111.244C13.3391 111.025 13.1301 110.763 13.1301 110.472Z" fill="#18216D"/>
<path d="M94.7594 40.4769C94.7169 40.6678 94.6745 40.8587 94.6308 41.0554C94.4929 40.9175 94.4554 40.8609 94.438 40.6698C94.5418 40.5313 94.5829 40.4769 94.7594 40.4769Z" fill="#1D1F29"/>
<path d="M86.2108 13.9314C86.2956 13.9314 86.3804 13.9314 86.4679 13.9314C86.5103 13.9738 86.5527 14.0162 86.5964 14.0599C86.6388 14.0811 86.6812 14.1023 86.725 14.1242C86.725 14.1666 86.725 14.209 86.725 14.2527C86.5553 14.2103 86.3856 14.1679 86.2108 14.1242C86.2108 14.0606 86.2108 13.9969 86.2108 13.9314Z" fill="#1E202B"/>
<path d="M107.421 85.2123C107.464 85.2336 107.506 85.2548 107.55 85.2766C107.486 85.2978 107.423 85.319 107.357 85.3409C107.28 85.4695 107.28 85.4695 107.229 85.598C107.144 85.5768 107.059 85.5556 106.972 85.5337C107.277 85.2847 107.277 85.2847 107.421 85.2123Z" fill="#21232C"/>
<path d="M112.628 90.5472C112.67 90.6108 112.713 90.6744 112.756 90.74C112.65 90.8248 112.544 90.9097 112.435 90.9971C112.414 90.891 112.393 90.785 112.371 90.6757C112.456 90.6333 112.54 90.5909 112.628 90.5472Z" fill="#1B1D2A"/>
<path d="M51.6951 109.83C51.8223 109.893 51.9496 109.957 52.0807 110.022C52.0595 110.065 52.0383 110.107 52.0164 110.151C51.9528 110.172 51.8892 110.193 51.8236 110.215C51.7812 110.173 51.7388 110.13 51.6951 110.087C51.6951 110.002 51.6951 109.917 51.6951 109.83Z" fill="#20222E"/>
<path d="M117.191 86.4978C117.376 86.5347 117.439 86.5532 117.577 86.6907C117.272 86.7549 117.272 86.7549 117.127 86.7549C117.148 86.6701 117.169 86.5852 117.191 86.4978Z" fill="#20202C"/>
<path d="M49.0598 63.8088C49.0598 63.8724 49.0598 63.936 49.0598 64.0016C48.9962 64.0228 48.9325 64.044 48.867 64.0659C48.8034 63.981 48.7397 63.8962 48.6742 63.8088C48.867 63.7445 48.867 63.7445 49.0598 63.8088Z" fill="#DFE2E9"/>
<path d="M37.4903 61.4306C37.6278 61.568 37.6463 61.6319 37.6831 61.8162C37.4922 61.7844 37.4922 61.7844 37.2975 61.752C37.2975 61.6883 37.2975 61.6247 37.2975 61.5591C37.3611 61.5167 37.4247 61.4743 37.4903 61.4306Z" fill="#1C1F27"/>
<path d="M65.7713 52.6249C65.94 52.649 65.94 52.649 66.0927 52.6892C66.0098 52.7776 65.9238 52.8632 65.8356 52.9463C65.7932 52.9463 65.7507 52.9463 65.707 52.9463C65.6858 52.8827 65.6646 52.819 65.6428 52.7535C65.6852 52.711 65.7276 52.6686 65.7713 52.6249Z" fill="#1E202C"/>
<path d="M117.577 92.2826C117.619 92.2826 117.662 92.2826 117.706 92.2826C117.748 92.4311 117.79 92.5795 117.834 92.7325C117.77 92.7643 117.77 92.7643 117.706 92.7968C117.706 92.7332 117.706 92.6695 117.706 92.604C117.663 92.5828 117.621 92.5615 117.577 92.5397C117.556 92.4761 117.535 92.4124 117.513 92.3469C117.534 92.3257 117.555 92.3044 117.577 92.2826Z" fill="#20202A"/>
<path d="M33.3767 62.1376C33.5859 62.3198 33.6673 62.4388 33.6981 62.7161C33.6557 62.7161 33.6132 62.7161 33.5695 62.7161C33.5695 62.6525 33.5695 62.5888 33.5695 62.5233C33.5271 62.5233 33.4847 62.5233 33.441 62.5233C33.4198 62.396 33.3986 62.2687 33.3767 62.1376Z" fill="#1E248D"/>
</svg>
