<svg width="130" height="129" viewBox="0 0 130 129" fill="none" xmlns="http://www.w3.org/2000/svg">
<path d="M86.5933 73.5247V79.1104C86.5933 82.5461 89.4656 85.3312 93.0087 85.3312H106.789C107.786 85.3312 108.594 86.1149 108.594 87.0817V101.705C108.594 105.485 105.434 108.55 101.535 108.55H27.7839C23.8853 108.55 20.725 105.485 20.725 101.705V50.9304C20.725 47.1502 23.8853 44.0856 27.7839 44.0856H101.535C105.434 44.0856 108.594 47.1502 108.594 50.9304V65.5535C108.594 66.5202 107.786 67.304 106.789 67.304H93.0087C89.4656 67.3039 86.5933 70.0891 86.5933 73.5247Z" fill="#407BFF"/>
<path d="M108.884 69.0198H93.0332C90.4537 69.0198 88.3627 71.0475 88.3627 73.5487V79.0865C88.3627 81.5877 90.4538 83.6153 93.0332 83.6153H108.884C110.453 83.6153 111.725 82.3821 111.725 80.8608V71.7743C111.725 70.253 110.453 69.0198 108.884 69.0198ZM95.4112 79.0735C93.841 79.0735 92.5687 77.8398 92.5687 76.3179C92.5687 74.7959 93.841 73.5616 95.4112 73.5616C96.9807 73.5616 98.253 74.7959 98.253 76.3179C98.253 77.8398 96.9807 79.0735 95.4112 79.0735Z" fill="#2D56B3"/>
<path d="M92.0644 30.2484L40.1178 42.5386H96.6681V33.7543C96.6681 31.415 94.4081 29.6939 92.0644 30.2484Z" fill="#B3CAFF"/>
<path d="M84.5239 30.2662L32.6512 42.5386L77.2984 20.4087C79.4389 19.33 82.056 20.4813 82.6287 22.7537L84.5239 30.2662Z" fill="#3064B7"/>
</svg>
